<?xml version="1.0" standalone="no"?>
<!DOCTYPE svg PUBLIC "-//W3C//DTD SVG 1.1//EN" "http://www.w3.org/Graphics/SVG/1.1/DTD/svg11.dtd" >
<svg>
<metadata>
Created by FontForge 20090914 at Tue Feb 16 14:00:48 2016
 By www-data
Copyright (c) 2009, Matt McInerney &#60;matt@pixelspread.com&#62;
</metadata>
<defs>
<font id="Orbitron-Bold" horiz-adv-x="828" >
  <font-face 
    font-family="Orbitron"
    font-weight="700"
    font-stretch="normal"
    units-per-em="1000"
    panose-1="2 0 0 0 0 0 0 0 0 0"
    ascent="750"
    descent="-250"
    x-height="578"
    cap-height="720"
    bbox="-187 -230 1304 969"
    underline-thickness="50"
    underline-position="-50"
    unicode-range="U+0020-U+E00C"
  />
<missing-glyph horiz-adv-x="0" 
 />
    <glyph glyph-name=".notdef" horiz-adv-x="0" 
 />
    <glyph glyph-name="space" unicode=" " horiz-adv-x="308" 
 />
    <glyph glyph-name="exclam" unicode="!" horiz-adv-x="220" 
d="M189 0h-131v131h131v-131zM58 197v523h131v-523h-131z" />
    <glyph glyph-name="quotedbl" unicode="&#x22;" horiz-adv-x="372" 
d="M191 719v-182h-132v182h132zM350 719v-182h-131v182h131z" />
    <glyph glyph-name="numbersign" unicode="#" horiz-adv-x="797" 
d="M757 566v-131h-117l-46 -144h134v-131h-175l-48 -160h-132l49 160h-176l-48 -160h-132l49 160h-83v131h123l46 144h-140v131h182l50 154h134l-52 -154h175l51 154h133l-52 -154h75zM287 291h175l46 144h-175z" />
    <glyph glyph-name="dollar" unicode="$" horiz-adv-x="788" 
d="M747 582v-54h-131v54c0 4.66699 -2.33301 7 -7 7h-153v-163h153c38 0 70.5 -13.5 97.5 -40.5s40.5 -59.5 40.5 -97.5v-150c0 -38 -13.5 -70.5 -40.5 -97.5s-59.5 -40.5 -97.5 -40.5h-153v-103h-131v103h-153c-38 0 -70.5 13.5 -97.5 40.5s-40.5 59.5 -40.5 97.5v54h131
v-54c0 -4.66699 2.33301 -7 7 -7h153v164h-153c-38 0 -70.5 13.5 -97.5 40.5s-40.5 59.5 -40.5 97.5v149c0 38 13.5 70.5 40.5 97.5s59.5 40.5 97.5 40.5h153v103h131v-103h153c38 0 70.5 -13.5 97.5 -40.5s40.5 -59.5 40.5 -97.5zM609 295h-153v-164h153
c4.66699 0 7 2.33301 7 7v150c0 4.66699 -2.33301 7 -7 7zM325 426v163h-153c-4.66699 0 -7 -2.33301 -7 -7v-149c0 -4.66699 2.33301 -7 7 -7h153z" />
    <glyph glyph-name="percent" unicode="%" horiz-adv-x="966" 
d="M808 720h33v-143l-680 -577h-33v143zM186 713h86c38 0 70.5 -13.5 97.5 -40.5s40.5 -59.5 40.5 -97.5v-76c0 -38 -13.5 -70.5 -40.5 -97.5s-59.5 -40.5 -97.5 -40.5h-86c-38 0 -70.5 13.5 -97.5 40.5s-40.5 59.5 -40.5 97.5v76c0 38 13.5 70.5 40.5 97.5
s59.5 40.5 97.5 40.5zM167 474h124c4 0 6 2 6 6v114c0 4.66699 -2 7 -6 7h-124c-4.66699 0 -7 -2.33301 -7 -7v-114c0 -4 2.33301 -6 7 -6zM679 351h85c38 0 70.5 -13.5 97.5 -40.5s40.5 -59.5 40.5 -97.5v-76c0 -38 -13.5 -70.5 -40.5 -97.5s-59.5 -40.5 -97.5 -40.5h-85
c-38 0 -70.5 13.5 -97.5 40.5s-40.5 59.5 -40.5 97.5v76c0 38 13.5 70.5 40.5 97.5s59.5 40.5 97.5 40.5zM660 111h123c4.66699 0 7 2.33301 7 7v114c0 4.66699 -2.33301 7 -7 7h-123c-4.66699 0 -7 -2.33301 -7 -7v-114c0 -4.66699 2.33301 -7 7 -7z" />
    <glyph glyph-name="ampersand" unicode="&#x26;" horiz-adv-x="938" 
d="M766 195l121.002 -71.001v-132l-138 78c-11.333 -21.333 -27.833 -38.333 -49.5 -51s-45.5 -19 -71.5 -19h-437c-38 0 -70.5 13.5 -97.5 40.5s-40.5 59.5 -40.5 97.5v194c0 14.667 4.5 30.334 13.5 47.001s21.167 28.334 36.5 35.001c-8 14 -12 34.667 -12 62v106
c0 38 13.5 70.5 40.5 97.5s59.5 40.5 97.5 40.5h371c33.333 0 63.166 -10.833 89.499 -32.5s42.166 -48.834 47.499 -81.501v-85h-131v60c0 4.66699 -2 7 -6 7h-371c-4.66699 0 -7 -2.33301 -7 -7v-124l413 -208v109h131v-163zM191.002 130.999h417l-410 207h-7
c-4.66699 0 -7 -2 -7 -6v-194c0 -4.66699 2.33301 -7 7 -7z" />
    <glyph glyph-name="quotesingle" unicode="'" horiz-adv-x="224" 
d="M190 719v-182h-131v182h131z" />
    <glyph glyph-name="parenleft" unicode="(" horiz-adv-x="277" 
d="M189 131h55v-131h-55c-38 0 -70.333 13.5 -97 40.5s-40 59.5 -40 97.5v444c0 38 13.333 70.5 40 97.5s59 40.5 97 40.5h55v-131h-55c-4 0 -6 -2.33301 -6 -7v-444c0 -4.66699 2 -7 6 -7z" />
    <glyph glyph-name="parenright" unicode=")" horiz-adv-x="278" 
d="M56 0v131h55c4 0 6 2.33301 6 7v444c0 4.66699 -2 7 -6 7h-55v131h55c37.333 0 69.666 -13.5 96.999 -40.5s41 -59.5 41 -97.5v-444c0 -38 -13.667 -70.5 -41 -97.5s-59.666 -40.5 -96.999 -40.5h-55z" />
    <glyph glyph-name="asterisk" unicode="*" horiz-adv-x="491" 
d="M439 632l41 -126l-122 -39l76 -103l-106 -77l-77 103l-74 -103l-106 77l75 103l-121 39l40 126l121 -41v128h132v-127z" />
    <glyph glyph-name="plus" unicode="+" horiz-adv-x="433" 
d="M154 499h131v-138h141v-131h-141v-140h-131v140h-137v131h137v138z" />
    <glyph glyph-name="comma" unicode="," horiz-adv-x="220" 
d="M54 119h131v-117c0 -34 -12.5 -64 -37.5 -90s-56.167 -42.333 -93.5 -49v256z" />
    <glyph glyph-name="hyphen" unicode="-" horiz-adv-x="517" 
d="M468 361v-131h-409v131h409z" />
    <glyph glyph-name="period" unicode="." horiz-adv-x="214" 
d="M185 131v-131h-131v131h131z" />
    <glyph glyph-name="slash" unicode="/" horiz-adv-x="521" 
d="M6 142l478 578h35v-141l-478 -579h-35v142z" />
    <glyph glyph-name="zero" unicode="0" horiz-adv-x="834" 
d="M195 720h437c38 0 70.5 -14 97.5 -42s40.5 -61 40.5 -99v-437c0 -38 -13.5 -71.167 -40.5 -99.5s-59.5 -42.5 -97.5 -42.5h-437c-38 0 -70.5 14.167 -97.5 42.5s-40.5 61.5 -40.5 99.5v437c0 38 13.5 71 40.5 99s59.5 42 97.5 42zM580 586h-385
c-4.66699 0 -7 -2.33301 -7 -7v-322zM247 135h385c4.66699 0 7 2.33301 7 7v322z" />
    <glyph glyph-name="one" unicode="1" horiz-adv-x="391" 
d="M1 461l217 259h145v-720h-131v529l-58 -68h-173z" />
    <glyph glyph-name="two" unicode="2" horiz-adv-x="830" 
d="M195 720h437c38 0 70.5 -13.5 97.5 -40.5s40.5 -59.5 40.5 -97.5v-160c0 -38 -13.5 -70.5 -40.5 -97.5s-59.5 -40.5 -97.5 -40.5h-437c-4.66699 0 -7 -2 -7 -6v-140c0 -4.66699 2.33301 -7 7 -7h575v-131h-713v278c0 38 13.5 70.5 40.5 97.5s59.5 40.5 97.5 40.5h437
c4.66699 0 7 2 7 6v160c0 4.66699 -2.33301 7 -7 7h-437c-4.66699 0 -7 -2.33301 -7 -7v-54h-131v54c0 38 13.5 70.5 40.5 97.5s59.5 40.5 97.5 40.5z" />
    <glyph glyph-name="three" unicode="3" horiz-adv-x="826" 
d="M738 582v-144c0 -19.333 -3.33301 -36 -10 -50c25.333 -26.667 38 -58 38 -94v-156c0 -38 -13.333 -70.5 -40 -97.5s-59 -40.5 -97 -40.5h-438c-38 0 -70.5 13.5 -97.5 40.5s-40.5 59.5 -40.5 97.5v43h131v-43c0 -4.66699 2.33301 -7 7 -7h438c4 0 6 2.33301 6 7v156
c0 4.66699 -2 7 -6 7h-452v131h423c4.66699 0 7 2 7 6v144c0 4.66699 -2.33301 7 -7 7h-409c-4.66699 0 -7 -2.33301 -7 -7v-52h-131v52c0 38 13.5 70.5 40.5 97.5s59.5 40.5 97.5 40.5h409c38 0 70.5 -13.5 97.5 -40.5s40.5 -59.5 40.5 -97.5z" />
    <glyph glyph-name="four" unicode="4" horiz-adv-x="730" 
d="M590 312h101v-131h-101v-181h-131v181h-453v123l461 416h123v-408zM459 514l-249 -202h249v202z" />
    <glyph glyph-name="five" unicode="5" horiz-adv-x="830" 
d="M188 582v-141c0 -4 2.33301 -6 7 -6h437c38 0 70.5 -13.5 97.5 -40.5s40.5 -59.5 40.5 -97.5v-159c0 -38 -13.5 -70.5 -40.5 -97.5s-59.5 -40.5 -97.5 -40.5h-437c-38 0 -70.5 13.5 -97.5 40.5s-40.5 59.5 -40.5 97.5v54h131v-54c0 -4.66699 2.33301 -7 7 -7h437
c4.66699 0 7 2.33301 7 7v159c0 4 -2.33301 6 -7 6h-575v417h713v-131h-575c-4.66699 0 -7 -2.33301 -7 -7z" />
    <glyph glyph-name="six" unicode="6" horiz-adv-x="820" 
d="M195 435h437c38 0 70.5 -13.5 97.5 -40.5s40.5 -59.5 40.5 -97.5v-159c0 -38 -13.5 -70.5 -40.5 -97.5s-59.5 -40.5 -97.5 -40.5h-437c-38 0 -70.5 13.5 -97.5 40.5s-40.5 59.5 -40.5 97.5v444c0 38 13.5 70.5 40.5 97.5s59.5 40.5 97.5 40.5h461v-131h-461
c-4.66699 0 -7 -2.33301 -7 -7v-141c0 -4 2.33301 -6 7 -6zM639 138v159c0 4 -2.33301 6 -7 6h-444v-165c0 -4.66699 2.33301 -7 7 -7h437c4.66699 0 7 2.33301 7 7z" />
    <glyph glyph-name="seven" unicode="7" horiz-adv-x="660" 
d="M3 720h461c38 0 70.5 -13.5 97.5 -40.5s40.5 -59.5 40.5 -97.5v-582h-131v582c0 4.66699 -2.33301 7 -7 7h-461v131z" />
    <glyph glyph-name="eight" unicode="8" horiz-adv-x="834" 
d="M770 606l0.000976562 -164.999c0 -28 -6.66699 -52 -20 -72c13.333 -20 20 -44 20 -72v-159c0 -38 -13.5 -70.5 -40.5 -97.5s-59.5 -40.5 -97.5 -40.5h-437c-38 0 -70.5 13.5 -97.5 40.5s-40.5 59.5 -40.5 97.5v159c0 26.667 6.66699 50.667 20 72
c-13.333 21.333 -20 45.333 -20 72v141c0 38 13.5 70.5 40.5 97.5s59.5 40.5 97.5 40.5h437c34 0 64.167 -10.833 90.5 -32.5s42.166 -48.834 47.499 -81.501zM639.001 138.001v159c0 4 -2.33301 6 -7 6h-437c-4.66699 0 -7 -2 -7 -6v-159c0 -4.66699 2.33301 -7 7 -7h437
c4.66699 0 7 2.33301 7 7zM639.001 431.001v150c0 4.66699 -2.33301 7 -7 7h-437c-4.66699 0 -7 -2.33301 -7 -7v-150c0 -4.66699 2.33301 -7 7 -7h437c4.66699 0 7 2.33301 7 7z" />
    <glyph glyph-name="nine" unicode="9" 
d="M628 288h-438c-38 0 -70.5 13.5 -97.5 40.5s-40.5 59.5 -40.5 97.5v156c0 38 13.5 70.5 40.5 97.5s59.5 40.5 97.5 40.5h438c38 0 70.333 -13.5 97 -40.5s40 -59.5 40 -97.5v-444c0 -38 -13.333 -70.5 -40 -97.5s-59 -40.5 -97 -40.5h-438c-34 0 -64 12.5 -90 37.5
s-42.333 56.167 -49 93.5h577c4 0 6 2.33301 6 7v144c0 4 -2 6 -6 6zM184 582v-156c0 -4 2 -6 6 -6h444v162c0 4.66699 -2 7 -6 7h-438c-4 0 -6 -2.33301 -6 -7z" />
    <glyph glyph-name="colon" unicode=":" horiz-adv-x="214" 
d="M54 131h131v-131h-131v131zM185 588v-132h-131v132h131z" />
    <glyph glyph-name="semicolon" unicode=";" horiz-adv-x="217" 
d="M182 588v-132h-131v132h131zM51 119h131v-117c0 -34 -12.5 -64 -37.5 -90s-56.167 -42.333 -93.5 -49v256z" />
    <glyph glyph-name="less" unicode="&#x3c;" horiz-adv-x="473" 
d="M163 296l261 -151v-152l-419 244v118l419 242v-151z" />
    <glyph glyph-name="equal" unicode="=" horiz-adv-x="638" 
d="M582 267v-131h-523v131h523zM582 448v-131h-523v131h523z" />
    <glyph glyph-name="greater" unicode="&#x3e;" horiz-adv-x="475" 
d="M59 -9v152l260 151l-260 150v151l420 -242v-118z" />
    <glyph glyph-name="question" unicode="?" horiz-adv-x="678" 
d="M31 720h486c38.667 0 71.334 -13.5 98.001 -40.5s40 -59.5 40 -97.5v-175c0 -38 -13.333 -70.5 -40 -97.5s-59.334 -40.5 -98.001 -40.5h-246c-4 0 -6 -2 -6 -6v-67h-132v67c0 38 13.5 70.5 40.5 97.5s59.5 40.5 97.5 40.5h246c4.66699 0 7 2 7 6v175
c0 4.66699 -2.33301 7 -7 7h-486v131zM265 0h-132v131h132v-131z" />
    <glyph glyph-name="at" unicode="@" horiz-adv-x="831" 
d="M381 529l66 -0.000976562c38 0 70.333 -13.333 97 -40s40 -59 40 -97v-82h55v272c0 4.66699 -2.33301 7 -7 7h-437c-4.66699 0 -7 -2.33301 -7 -7v-444c0 -4.66699 2.33301 -7 7 -7h575v-131h-575c-38 0 -70.5 13.5 -97.5 40.5s-40.5 59.5 -40.5 97.5v444
c0 38 13.5 70.5 40.5 97.5s59.5 40.5 97.5 40.5h437c38 0 70.5 -13.5 97.5 -40.5s40.5 -59.5 40.5 -97.5v-384h-389c-38 0 -70.5 13.333 -97.5 40s-40.5 59.334 -40.5 98.001v56c0 38 13.5 70.333 40.5 97s59.5 40 97.5 40zM352 309.999h130v111c0 4 -2 6 -6 6h-124
c-4.66699 0 -7 -2 -7 -6v-104c0 -4.66699 2.33301 -7 7 -7z" />
    <glyph glyph-name="A" unicode="A" horiz-adv-x="836" 
d="M197 720h441c38.667 0 71.667 -13.5 99 -40.5s41 -59.833 41 -98.5v-581h-133v242h-455v-242h-132v581c0 38.667 13.5 71.5 40.5 98.5s59.833 40.5 98.5 40.5zM190 374h455v207c0 4.66699 -2.33301 7 -7 7h-441c-4.66699 0 -7 -2.33301 -7 -7v-207z" />
    <glyph glyph-name="B" unicode="B" horiz-adv-x="832" 
d="M750 581v-141c0 -20 -3.33301 -37 -10 -51c26 -27.333 39 -59 39 -95v-155c0 -38.667 -13.667 -71.5 -41 -98.5s-60.333 -40.5 -99 -40.5h-580v720h552c38 0 70.667 -13.5 98 -40.5s41 -59.833 41 -98.5zM611 588h-413c-4.66699 0 -7 -2.33301 -7 -7v-141
c0 -4.66699 2.33301 -7 7 -7h413c4 0 6 2.33301 6 7v141c0 4.66699 -2 7 -6 7zM646 139v155c0 4 -2.33301 6 -7 6h-441c-4.66699 0 -7 -2 -7 -6v-155c0 -4.66699 2.33301 -7 7 -7h441c4.66699 0 7 2.33301 7 7z" />
    <glyph glyph-name="C" unicode="C" horiz-adv-x="822" 
d="M774 588h-579c-4.66699 0 -7 -2.33301 -7 -7v-442c0 -4.66699 2.33301 -7 7 -7h579v-132h-579c-38.667 0 -71.5 13.5 -98.5 40.5s-40.5 59.833 -40.5 98.5v442c0 38.667 13.5 71.5 40.5 98.5s59.833 40.5 98.5 40.5h579v-132z" />
    <glyph glyph-name="D" unicode="D" horiz-adv-x="834" 
d="M58 720h580c38.667 0 71.667 -13.5 99 -40.5s41 -59.833 41 -98.5v-442c0 -38.667 -13.667 -71.5 -41 -98.5s-60.333 -40.5 -99 -40.5h-580v720zM645 139v442c0 4.66699 -2.33301 7 -7 7h-441c-4.66699 0 -7 -2.33301 -7 -7v-442c0 -4.66699 2.33301 -7 7 -7h441
c4.66699 0 7 2.33301 7 7z" />
    <glyph glyph-name="E" unicode="E" horiz-adv-x="766" 
d="M720 720v-132h-529v-162h426v-132h-426v-162h529v-132h-662v720h662z" />
    <glyph glyph-name="F" unicode="F" horiz-adv-x="723" 
d="M58 720h662v-132h-529v-162h426v-132h-426v-294h-133v720z" />
    <glyph glyph-name="G" unicode="G" horiz-adv-x="830" 
d="M776 581v-56h-133v56c0 4.66699 -2.33301 7 -7 7h-441c-4.66699 0 -7 -2.33301 -7 -7v-442c0 -4.66699 2.33301 -7 7 -7h441c4.66699 0 7 2.33301 7 7v136h-163v132h296v-268c0 -38.667 -13.667 -71.5 -41 -98.5s-60.333 -40.5 -99 -40.5h-441
c-38.667 0 -71.5 13.5 -98.5 40.5s-40.5 59.833 -40.5 98.5v442c0 38.667 13.5 71.5 40.5 98.5s59.833 40.5 98.5 40.5h441c38.667 0 71.667 -13.5 99 -40.5s41 -59.833 41 -98.5z" />
    <glyph glyph-name="H" unicode="H" horiz-adv-x="851" 
d="M661 720h132v-720h-132v294h-472v-294h-132v720h132v-294h472v294z" />
    <glyph glyph-name="I" unicode="I" horiz-adv-x="220" 
d="M57 0v720h132v-720h-132z" />
    <glyph glyph-name="J" unicode="J" horiz-adv-x="780" 
d="M591 139v581h133v-581c0 -38.667 -13.667 -71.5 -41 -98.5s-60 -40.5 -98 -40.5h-442c-38.667 0 -71.5 13.5 -98.5 40.5s-40.5 59.833 -40.5 98.5v82h132v-82c0 -4.66699 2.33301 -7 7 -7h442c4 0 6 2.33301 6 7z" />
    <glyph glyph-name="K" unicode="K" horiz-adv-x="797" 
d="M606 720h145v-35l-272 -325l272 -325v-35h-145l-246 294h-170v-294h-133v720h133v-294h170z" />
    <glyph glyph-name="L" unicode="L" horiz-adv-x="779" 
d="M57 0v721h132v-589h588v-132h-720z" />
    <glyph glyph-name="M" unicode="M" horiz-adv-x="928" 
d="M462 408l261 312h145v-720h-133v528l-273 -325l-274 325v-528h-132v720h144z" />
    <glyph glyph-name="N" unicode="N" horiz-adv-x="832" 
d="M643 192v528h133v-720h-144l-444 528v-528h-132v720h144z" />
    <glyph glyph-name="O" unicode="O" 
d="M193 720h442c38 0 70.667 -13.5 98 -40.5s41 -59.833 41 -98.5v-442c0 -38.667 -13.667 -71.5 -41 -98.5s-60 -40.5 -98 -40.5h-442c-38.667 0 -71.5 13.5 -98.5 40.5s-40.5 59.833 -40.5 98.5v442c0 38.667 13.5 71.5 40.5 98.5s59.833 40.5 98.5 40.5zM193 132h442
c4 0 6 2.33301 6 7v442c0 4.66699 -2 7 -6 7h-442c-4.66699 0 -7 -2.33301 -7 -7v-442c0 -4.66699 2.33301 -7 7 -7z" />
    <glyph glyph-name="P" unicode="P" horiz-adv-x="791" 
d="M56 719h580c38.667 0 71.667 -13.667 99 -41s41 -60 41 -98v-194c0 -38 -13.667 -70.667 -41 -98s-60.333 -41 -99 -41l-445 -1l-3 1v-247h-132v719zM643 386v194c0 4.66699 -2.33301 7 -7 7h-441c-4.66699 0 -7 -2.33301 -7 -7v-194c0 -4.66699 2.33301 -7 7 -7h441
c4.66699 0 7 2.33301 7 7z" />
    <glyph glyph-name="Q" unicode="Q" horiz-adv-x="884" 
d="M774 132h86v-132h-667c-38.667 0 -71.5 13.5 -98.5 40.5s-40.5 59.833 -40.5 98.5v442c0 38.667 13.5 71.5 40.5 98.5s59.833 40.5 98.5 40.5h441c38.667 0 71.667 -13.5 99 -40.5s41 -59.833 41 -98.5v-449zM193 132h441c4.66699 0 7 2.33301 7 7v442
c0 4.66699 -2.33301 7 -7 7h-441c-4.66699 0 -7 -2.33301 -7 -7v-442c0 -4.66699 2.33301 -7 7 -7z" />
    <glyph glyph-name="R" unicode="R" horiz-adv-x="825" 
d="M775 580v-194c0 -38 -13.667 -70.667 -41 -98s-60.333 -41 -99 -41h-39l179 -213v-34h-144l-208 247h-233h-3v-247h-132v719h580c38.667 0 71.667 -13.667 99 -41s41 -60 41 -98zM194 379h441c4.66699 0 7 2.33301 7 7v194c0 4.66699 -2.33301 7 -7 7h-441
c-4.66699 0 -7 -2.33301 -7 -7v-194c0 -4.66699 2.33301 -7 7 -7z" />
    <glyph glyph-name="S" unicode="S" horiz-adv-x="822" 
d="M771 581v-55h-133v55c0 4.66699 -2 7 -6 7h-442c-4.66699 0 -7 -2.33301 -7 -7v-148c0 -4.66699 2.33301 -7 7 -7h442c38 0 70.667 -13.5 98 -40.5s41 -59.833 41 -98.5v-148c0 -38.667 -13.667 -71.5 -41 -98.5s-60 -40.5 -98 -40.5h-442
c-38.667 0 -71.5 13.5 -98.5 40.5s-40.5 59.833 -40.5 98.5v55h132v-55c0 -4.66699 2.33301 -7 7 -7h442c4 0 6 2.33301 6 7v148c0 4.66699 -2 7 -6 7h-442c-38.667 0 -71.5 13.5 -98.5 40.5s-40.5 59.833 -40.5 98.5v148c0 38.667 13.5 71.5 40.5 98.5
s59.833 40.5 98.5 40.5h442c38 0 70.667 -13.5 98 -40.5s41 -59.833 41 -98.5z" />
    <glyph glyph-name="T" unicode="T" horiz-adv-x="759" 
d="M20 720h720v-132h-293v-588h-133v588h-294v132z" />
    <glyph glyph-name="U" unicode="U" 
d="M641 139v581h133v-581c0 -38.667 -13.667 -71.5 -41 -98.5s-60 -40.5 -98 -40.5h-442c-38.667 0 -71.5 13.5 -98.5 40.5s-40.5 59.833 -40.5 98.5v581h132v-581c0 -4.66699 2.33301 -7 7 -7h442c4 0 6 2.33301 6 7z" />
    <glyph glyph-name="V" unicode="V" horiz-adv-x="1003" 
d="M511 160l322 560h153l-416 -720h-119l-416 720h153z" />
    <glyph glyph-name="W" unicode="W" horiz-adv-x="1179" 
d="M1000 720h140l-262 -720h-104l-187 511l-187 -511h-103l-262 720h140l174 -475l174 475h129l174 -475z" />
    <glyph glyph-name="X" unicode="X" horiz-adv-x="812" 
d="M621 720h145v-35l-274 -325l274 -325v-35h-145l-215 255l-215 -255h-145v35l273 325l-273 325v35h145l215 -255z" />
    <glyph glyph-name="Y" unicode="Y" horiz-adv-x="806" 
d="M657 720h158l-333 -451v-269h-132v269l-333 451h157l242 -306z" />
    <glyph glyph-name="Z" unicode="Z" horiz-adv-x="821" 
d="M51 588v132h720v-144l-528 -444h528v-132h-720v144l528 444h-528z" />
    <glyph glyph-name="bracketleft" unicode="[" horiz-adv-x="275" 
d="M54 0v720h192v-131h-61v-458h61v-131h-192z" />
    <glyph glyph-name="backslash" unicode="\" horiz-adv-x="520" 
d="M5 720h35l478 -579v-141h-35l-478 579v141z" />
    <glyph glyph-name="bracketright" unicode="]" horiz-adv-x="276" 
d="M51 589v131h192v-720h-192v131h60v458h-60z" />
    <glyph glyph-name="underscore" unicode="_" 
d="M767 0v-131h-713v131h713z" />
    <glyph glyph-name="grave" unicode="`" horiz-adv-x="213" 
d="M165 969l46 -183h-133l-46 183h133z" />
    <glyph glyph-name="a" unicode="a" horiz-adv-x="694" 
d="M503 580c38 0 70.5 -13.5 97.5 -40.5s40.5 -59.5 40.5 -97.5v-442h-451c-38 0 -70.5 13.5 -97.5 40.5s-40.5 59.5 -40.5 97.5v218h458v86c0 4.66699 -2.33301 7 -7 7h-451v131h451zM510 131v93h-327v-86c0 -4.66699 2.33301 -7 7 -7h320z" />
    <glyph glyph-name="b" unicode="b" horiz-adv-x="667" 
d="M505 580c38 0 70.5 -13.5 97.5 -40.5s40.5 -59.5 40.5 -97.5v-304c0 -38 -13.5 -70.5 -40.5 -97.5s-59.5 -40.5 -97.5 -40.5h-451v770h131v-190h320zM512 138v304c0 4.66699 -2.33301 7 -7 7h-313c-4.66699 0 -7 -2.33301 -7 -7v-304c0 -4.66699 2.33301 -7 7 -7h313
c4.66699 0 7 2.33301 7 7z" />
    <glyph glyph-name="c" unicode="c" horiz-adv-x="695" 
d="M189 131h451v-131h-451c-38 0 -70.5 13.5 -97.5 40.5s-40.5 59.5 -40.5 97.5v304c0 38 13.5 70.5 40.5 97.5s59.5 40.5 97.5 40.5h449v-131h-449c-4.66699 0 -7 -2.33301 -7 -7v-304c0 -4.66699 2.33301 -7 7 -7z" />
    <glyph glyph-name="d" unicode="d" horiz-adv-x="667" 
d="M482 770h131v-770h-452c-38 0 -70.5 13.5 -97.5 40.5s-40.5 59.5 -40.5 97.5v304c0 38 13.5 70.5 40.5 97.5s59.5 40.5 97.5 40.5h321v190zM161 131h314c4.66699 0 7 2.33301 7 7v304c0 4.66699 -2.33301 7 -7 7h-314c-4 0 -6 -2.33301 -6 -7v-304c0 -4.66699 2 -7 6 -7z
" />
    <glyph glyph-name="e" unicode="e" horiz-adv-x="692" 
d="M502 580c38 0 70.5 -13.5 97.5 -40.5s40.5 -59.5 40.5 -97.5v-218h-458v-86c0 -4.66699 2.33301 -7 7 -7h451v-131h-451c-38 0 -70.5 13.5 -97.5 40.5s-40.5 59.5 -40.5 97.5v304c0 38 13.5 70.5 40.5 97.5s59.5 40.5 97.5 40.5h313zM182 356h327v86
c0 4.66699 -2.33301 7 -7 7h-313c-4.66699 0 -7 -2.33301 -7 -7v-86z" />
    <glyph glyph-name="f" unicode="f" horiz-adv-x="437" 
d="M191 638c-4.66699 0 -7.00098 -2 -7.00098 -6v-52h226v-131h-226v-449h-131v632c0 38 13.333 70.5 40 97.5s59.334 40.5 98.001 40.5h219v-132h-219z" />
    <glyph glyph-name="g" unicode="g" horiz-adv-x="683" 
d="M630 -92c0 -38 -13.333 -70.5 -40 -97.5s-59 -40.5 -97 -40.5h-355v132h355c4 0 6 2 6 6v92h-320c-38 0 -70.5 13.5 -97.5 40.5s-40.5 59.5 -40.5 97.5v304c0 38 13.5 70.5 40.5 97.5s59.5 40.5 97.5 40.5h314c38 0 70.333 -13.5 97 -40.5s40 -59.5 40 -97.5v-534z
M179 131h314c4 0 6 2.33301 6 7v304c0 4.66699 -2 7 -6 7h-314c-4.66699 0 -7 -2.33301 -7 -7v-304c0 -4.66699 2.33301 -7 7 -7z" />
    <glyph glyph-name="h" unicode="h" horiz-adv-x="668" 
d="M505 580c37.333 0 69.667 -13.5 97 -40.5s41 -59.5 41 -97.5v-442h-131v442c0 4.66699 -2.33301 7 -7 7h-313c-4.66699 0 -7 -2.33301 -7 -7v-442h-131v770h131v-190h320z" />
    <glyph glyph-name="i" unicode="i" horiz-adv-x="233" 
d="M52 0v580h131v-580h-131zM52 770h131v-132h-131v132z" />
    <glyph glyph-name="j" unicode="j" horiz-adv-x="239" 
d="M70 770h131v-132h-131v132zM201 580v-661c0 -38 -13.5 -70.5 -40.5 -97.5s-59.5 -40.5 -97.5 -40.5h-250v132h250c4.66699 0 7 2 7 6v661h131z" />
    <glyph glyph-name="k" unicode="k" horiz-adv-x="646" 
d="M495 580h141v-34l-232 -256l232 -256v-34h-141l-207 224h-103v-224h-131v770h131v-414h103z" />
    <glyph glyph-name="l" unicode="l" horiz-adv-x="344" 
d="M52 770h132v-632c0 -4.66699 2 -7 6 -7h117v-131h-117c-38 0 -70.5 13.5 -97.5 40.5s-40.5 59.5 -40.5 97.5v632z" />
    <glyph glyph-name="m" unicode="m" horiz-adv-x="978" 
d="M773 580c38 0 70.5 -13.5 97.5 -40.5s40.5 -59.5 40.5 -97.5v-442h-130v442c0 4.66699 -2.66699 7 -8 7h-218c-4 0 -6 -2.33301 -6 -7v-442h-132v442c0 4.66699 -2 7 -6 7h-219c-4.66699 0 -7 -2.33301 -7 -7v-442h-131v580h719z" />
    <glyph glyph-name="n" unicode="n" horiz-adv-x="696" 
d="M505 580c38 0 70.5 -13.5 97.5 -40.5s40.5 -59.5 40.5 -97.5v-442h-131v442c0 4.66699 -2.33301 7 -7 7h-313c-4.66699 0 -7 -2.33301 -7 -7v-442h-131v580h451z" />
    <glyph glyph-name="o" unicode="o" horiz-adv-x="692" 
d="M189 580h313c38 0 70.5 -13.5 97.5 -40.5s40.5 -59.5 40.5 -97.5v-304c0 -38 -13.5 -70.5 -40.5 -97.5s-59.5 -40.5 -97.5 -40.5h-313c-38 0 -70.5 13.5 -97.5 40.5s-40.5 59.5 -40.5 97.5v304c0 38 13.5 70.5 40.5 97.5s59.5 40.5 97.5 40.5zM502 449h-313
c-4.66699 0 -7 -2.33301 -7 -7v-304c0 -4.66699 2.33301 -7 7 -7h313c4.66699 0 7 2.33301 7 7v304c0 4.66699 -2.33301 7 -7 7z" />
    <glyph glyph-name="p" unicode="p" horiz-adv-x="664" 
d="M505 580c38 0 70.5 -13.5 97.5 -40.5s40.5 -59.5 40.5 -97.5v-304c0 -38 -13.5 -70.5 -40.5 -97.5s-59.5 -40.5 -97.5 -40.5h-320v-230h-131v810h451zM512 138v304c0 4.66699 -2.33301 7 -7 7h-313c-4.66699 0 -7 -2.33301 -7 -7v-304c0 -4.66699 2.33301 -7 7 -7h313
c4.66699 0 7 2.33301 7 7z" />
    <glyph glyph-name="q" unicode="q" horiz-adv-x="664" 
d="M20 442c0 38 13.5 70.5 40.5 97.5s59.5 40.5 97.5 40.5h452v-810h-131v230h-321c-38 0 -70.5 13.5 -97.5 40.5s-40.5 59.5 -40.5 97.5v304zM152 442v-304c0 -4.66699 2 -7 6 -7h314c4.66699 0 7 2.33301 7 7v304c0 4.66699 -2.33301 7 -7 7h-314c-4 0 -6 -2.33301 -6 -7z
" />
    <glyph glyph-name="r" unicode="r" horiz-adv-x="528" 
d="M190 580h322v-131h-322c-4.66699 0 -7 -2.33301 -7 -7v-442h-131v442c0 38 13.5 70.5 40.5 97.5s59.5 40.5 97.5 40.5z" />
    <glyph glyph-name="s" unicode="s" horiz-adv-x="686" 
d="M637 442l-0.000976562 -25h-131v25c0 4.66699 -2.33301 7 -7 7h-313c-4.66699 0 -7 -2.33301 -7 -7v-80c0 -4 2.33301 -6 7 -6h313c38.667 0 71.334 -13.5 98.001 -40.5s40 -59.5 40 -97.5v-80c0 -38 -13.333 -70.5 -40 -97.5s-59.334 -40.5 -98.001 -40.5h-313
c-38 0 -70.5 13.5 -97.5 40.5s-40.5 59.5 -40.5 97.5v25h131v-25c0 -4.66699 2.33301 -7 7 -7h313c4.66699 0 7 2.33301 7 7v80c0 4 -2.33301 6 -7 6h-313c-38 0 -70.5 13.5 -97.5 40.5s-40.5 59.5 -40.5 97.5v80c0 38 13.5 70.5 40.5 97.5s59.5 40.5 97.5 40.5h313
c38.667 0 71.334 -13.5 98.001 -40.5s40 -59.5 40 -97.5z" />
    <glyph glyph-name="t" unicode="t" horiz-adv-x="437" 
d="M410 449h-225.999v-311c0 -4.66699 2.33301 -7 7 -7h219v-131h-219c-38.667 0 -71.334 13.5 -98.001 40.5s-40 59.5 -40 97.5v632h131v-190h226v-131z" />
    <glyph glyph-name="u" unicode="u" horiz-adv-x="695" 
d="M511 580h131.001v-442c0 -38 -13.5 -70.5 -40.5 -97.5s-59.5 -40.5 -97.5 -40.5h-313c-38.667 0 -71.334 13.5 -98.001 40.5s-40 59.5 -40 97.5v442h131v-442c0 -4.66699 2.33301 -7 7 -7h313c4.66699 0 7 2.33301 7 7v442z" />
    <glyph glyph-name="v" unicode="v" horiz-adv-x="790" 
d="M629 580h151l-320 -580h-120l-319 580h151l228 -421z" />
    <glyph glyph-name="w" unicode="w" horiz-adv-x="1056" 
d="M888 580h139l-218 -580h-102l-175 388l-168 -388h-101l-228 580h139l140 -342l149 342h136l158 -344z" />
    <glyph glyph-name="x" unicode="x" horiz-adv-x="692" 
d="M502 580h143v-33l-215 -252l215 -262v-33h-143l-157 192l-156 -192h-143v33l214 262l-214 252v33h143l156 -184z" />
    <glyph glyph-name="y" unicode="y" horiz-adv-x="685" 
d="M631 -92c0 -38 -13.333 -70.5 -40 -97.5s-59 -40.5 -97 -40.5h-355v132h355c4 0 6 2 6 6v92h-320c-38 0 -70.5 13.5 -97.5 40.5s-40.5 59.5 -40.5 97.5v440h131v-440c0 -4.66699 2.33301 -7 7 -7h314c4 0 6 2.33301 6 7v440h131v-670z" />
    <glyph glyph-name="z" unicode="z" horiz-adv-x="698" 
d="M54 449v131h589v-143l-396 -306h396v-131h-589v143l396 306h-396z" />
    <glyph glyph-name="braceleft" unicode="{" horiz-adv-x="289" 
d="M196 318v-179.999c0 -4.66699 2.33301 -7 7 -7h54v-131h-54c-38.667 0 -71.334 13.5 -98.001 40.5s-40 59.5 -40 97.5v143c-4.66699 2.66699 -12 7.16699 -22 13.5s-16.667 10.166 -20 11.499v119l42 23v134c0 38 13.333 70.5 40 97.5s59.334 40.5 98.001 40.5h54v-131
h-54c-4.66699 0 -7 -2.33301 -7 -7v-171l-57 -46z" />
    <glyph glyph-name="bar" unicode="|" horiz-adv-x="214" 
d="M54 -104v920h131v-920h-131z" />
    <glyph glyph-name="braceright" unicode="}" horiz-adv-x="289" 
d="M112 138l-0.000976562 180l57 47l-57 46v171c0 4.66699 -2.33301 7 -7 7h-54v131h54c38 0 70.5 -13.5 97.5 -40.5s40.5 -59.5 40.5 -97.5v-129c4.66699 -2.66699 11.834 -7.66699 21.501 -15s16.5 -12 20.5 -14v-118l-42 -25v-143c0 -38 -13.5 -70.5 -40.5 -97.5
s-59.5 -40.5 -97.5 -40.5h-54v131h54c4.66699 0 7 2.33301 7 7z" />
    <glyph glyph-name="asciitilde" unicode="~" horiz-adv-x="404" 
d="M301 312c32 0 60.999 8.66699 86.999 26v-96c-33.333 -14 -63 -21 -89 -21c-24 0 -56.5 10.667 -97.5 32s-73.833 32 -98.5 32c-31.333 0 -57.666 -10.333 -78.999 -31v104c28.667 12.667 57 19 85 19c25.333 0 58.333 -10 99 -30s71.667 -31.667 93 -35z" />
    <glyph glyph-name="exclamdown" unicode="&#xa1;" horiz-adv-x="210" 
d="M184 720v-131h-131v131h131zM184 0h-131v523h131v-523z" />
    <glyph glyph-name="cent" unicode="&#xa2;" horiz-adv-x="636" 
d="M621 458h-197v-327h197v-131h-197v-104h-132v104h-121c-38 0 -70.5 13.5 -97.5 40.5s-40.5 59.5 -40.5 97.5v314c0 38 13.5 70.5 40.5 97.5s59.5 40.5 97.5 40.5h121v121h132v-121h197v-132zM292 131v327h-121c-4.66699 0 -7 -2 -7 -6v-314c0 -4.66699 2.33301 -7 7 -7
h121z" />
    <glyph glyph-name="sterling" unicode="&#xa3;" horiz-adv-x="734" 
d="M683 539h-131v43c0 4.66699 -2 7 -6 7h-274c-4.66699 0 -7 -2.33301 -7 -7v-160h318v-131h-318v-160h418v-131h-644v131h95v160h-95v131h95v160c0 38 13.5 70.5 40.5 97.5s59.5 40.5 97.5 40.5h274c38 0 70.333 -13.5 97 -40.5s40 -59.5 40 -97.5v-43z" />
    <glyph glyph-name="dieresis" unicode="&#xa8;" horiz-adv-x="385" 
d="M357 918v-132h-132v132h132zM185 918v-132h-131v132h131z" />
    <glyph glyph-name="degree" unicode="&#xb0;" horiz-adv-x="439" 
d="M183 713h85c38 0 70.5 -13.5 97.5 -40.5s40.5 -59.5 40.5 -97.5v-76c0 -38 -13.5 -70.5 -40.5 -97.5s-59.5 -40.5 -97.5 -40.5h-85c-38 0 -70.5 13.5 -97.5 40.5s-40.5 59.5 -40.5 97.5v76c0 38 13.5 70.5 40.5 97.5s59.5 40.5 97.5 40.5zM164 474h123c4.66699 0 7 2 7 6
v114c0 4.66699 -2.33301 7 -7 7h-123c-4.66699 0 -7 -2.33301 -7 -7v-114c0 -4 2.33301 -6 7 -6z" />
    <glyph glyph-name="acute" unicode="&#xb4;" horiz-adv-x="213" 
d="M33 786l46 183h133l-46 -183h-133z" />
    <glyph glyph-name="paragraph" unicode="&#xb6;" horiz-adv-x="833" 
d="M56 574c0 37.333 13.5 69.668 40.5 97.001s59.5 41 97.5 41h575v-712h-131v244h-77v-244h-132v244h-235c-38 0 -70.5 13.667 -97.5 41s-40.5 59.666 -40.5 96.999v192zM561 581.002v-205h77v205h-77zM187 574.002v-192c0 -4 2.33301 -6 7 -6h235v205h-235
c-4.66699 0 -7 -2.33301 -7 -7z" />
    <glyph glyph-name="cedilla" unicode="&#xb8;" horiz-adv-x="213" 
d="M33 -154l46 183h133l-46 -183h-133z" />
    <glyph glyph-name="questiondown" unicode="&#xbf;" horiz-adv-x="675" 
d="M644 0h-487c-38 0 -70.5 13.5 -97.5 40.5s-40.5 59.5 -40.5 97.5v175c0 38 13.5 70.5 40.5 97.5s59.5 40.5 97.5 40.5h246c4.66699 0 7 2 7 6v73h131v-73c0 -38 -13.5 -70.5 -40.5 -97.5s-59.5 -40.5 -97.5 -40.5h-246c-4.66699 0 -7 -2 -7 -6v-175
c0 -4.66699 2.33301 -7 7 -7h487v-131zM541 720v-131h-131v131h131z" />
    <glyph glyph-name="Agrave" unicode="&#xc0;" horiz-adv-x="836" 
d="M197 720h441c38.667 0 71.667 -13.5 99 -40.5s41 -59.833 41 -98.5v-581h-133v242h-455v-242h-132v581c0 38.667 13.5 71.5 40.5 98.5s59.833 40.5 98.5 40.5zM190 374h455v207c0 4.66699 -2.33301 7 -7 7h-441c-4.66699 0 -7 -2.33301 -7 -7v-207zM477 962l46 -183h-133
l-46 183h133z" />
    <glyph glyph-name="Aacute" unicode="&#xc1;" horiz-adv-x="836" 
d="M197 720h441c38.667 0 71.667 -13.5 99 -40.5s41 -59.833 41 -98.5v-581h-133v242h-455v-242h-132v581c0 38.667 13.5 71.5 40.5 98.5s59.833 40.5 98.5 40.5zM190 374h455v207c0 4.66699 -2.33301 7 -7 7h-441c-4.66699 0 -7 -2.33301 -7 -7v-207zM344 778l46 183h133
l-46 -183h-133z" />
    <glyph glyph-name="Acircumflex" unicode="&#xc2;" horiz-adv-x="836" 
d="M197 720h441c38.667 0 71.667 -13.5 99 -40.5s41 -59.833 41 -98.5v-581h-133v242h-455v-242h-132v581c0 38.667 13.5 71.5 40.5 98.5s59.833 40.5 98.5 40.5zM190 374h455v207c0 4.66699 -2.33301 7 -7 7h-441c-4.66699 0 -7 -2.33301 -7 -7v-207zM400 778h-104l98 163
h87l98 -163h-106l-37 59c-4 -6 -10 -15.833 -18 -29.5s-14 -23.5 -18 -29.5z" />
    <glyph glyph-name="Atilde" unicode="&#xc3;" horiz-adv-x="836" 
d="M197 720h441c38.667 0 71.667 -13.5 99 -40.5s41 -59.833 41 -98.5v-581h-133v242h-455v-242h-132v581c0 38.667 13.5 71.5 40.5 98.5s59.833 40.5 98.5 40.5zM190 374h455v207c0 4.66699 -2.33301 7 -7 7h-441c-4.66699 0 -7 -2.33301 -7 -7v-207zM519 874
c31.333 0 60.334 9 87.001 27v-96c-34.667 -14.667 -64.334 -22 -89.001 -22c-24 0 -56 10.833 -96 32.5s-71.333 32.5 -94 32.5h-12c-29.333 0 -53.666 -12.667 -72.999 -38v111c30 12 58.333 18 85 18c26 0 59.167 -10.167 99.5 -30.5s71.166 -31.833 92.499 -34.5z" />
    <glyph glyph-name="Adieresis" unicode="&#xc4;" horiz-adv-x="836" 
d="M197 720h441c38.667 0 71.667 -13.5 99 -40.5s41 -59.833 41 -98.5v-581h-133v242h-455v-242h-132v581c0 38.667 13.5 71.5 40.5 98.5s59.833 40.5 98.5 40.5zM190 374h455v207c0 4.66699 -2.33301 7 -7 7h-441c-4.66699 0 -7 -2.33301 -7 -7v-207zM582 901v-132h-132
v132h132zM410 901v-132h-131v132h131z" />
    <glyph glyph-name="Aring" unicode="&#xc5;" horiz-adv-x="836" 
d="M197 720h441c38.667 0 71.667 -13.5 99 -40.5s41 -59.833 41 -98.5v-581h-133v242h-455v-242h-132v581c0 38.667 13.5 71.5 40.5 98.5s59.833 40.5 98.5 40.5zM190 374h455v207c0 4.66699 -2.33301 7 -7 7h-441c-4.66699 0 -7 -2.33301 -7 -7v-207zM388 961h54
c18 0 33.333 -6.5 46 -19.5s19 -28.167 19 -45.5v-51c0 -17.333 -6.33301 -32.5 -19 -45.5s-28 -19.5 -46 -19.5h-54c-18 0 -33.333 6.5 -46 19.5s-19 28.167 -19 45.5v51c0 17.333 6.33301 32.5 19 45.5s28 19.5 46 19.5zM389 894v-47h52v47h-52z" />
    <glyph glyph-name="AE" unicode="&#xc6;" horiz-adv-x="1375" 
d="M774 588v-162h426v-132h-426v-162h530v-132h-662v242h-455v-242h-133v581c0 38.667 13.667 71.5 41 98.5s60 40.5 98 40.5h1111v-132h-530zM642 374v207c0 4.66699 -2.33301 7 -7 7h-442c-4 0 -6 -2.33301 -6 -7v-207h455z" />
    <glyph glyph-name="Ccedilla" unicode="&#xc7;" horiz-adv-x="822" 
d="M774 588h-579c-4.66699 0 -7 -2.33301 -7 -7v-442c0 -4.66699 2.33301 -7 7 -7h579v-132h-266l-38 -154h-133l38 154h-180c-38.667 0 -71.5 13.5 -98.5 40.5s-40.5 59.833 -40.5 98.5v442c0 38.667 13.5 71.5 40.5 98.5s59.833 40.5 98.5 40.5h579v-132z" />
    <glyph glyph-name="Egrave" unicode="&#xc8;" horiz-adv-x="766" 
d="M720 720v-132h-529v-162h426v-132h-426v-162h529v-132h-662v720h662zM442 962l46 -183h-133l-46 183h133z" />
    <glyph glyph-name="Eacute" unicode="&#xc9;" horiz-adv-x="766" 
d="M720 720v-132h-529v-162h426v-132h-426v-162h529v-132h-662v720h662zM309 779l46 183h133l-46 -183h-133z" />
    <glyph glyph-name="Ecircumflex" unicode="&#xca;" horiz-adv-x="766" 
d="M720 720v-132h-529v-162h426v-132h-426v-162h529v-132h-662v720h662zM365 778h-104l98 163h87l98 -163h-106l-37 59c-4 -6 -10 -15.833 -18 -29.5s-14 -23.5 -18 -29.5z" />
    <glyph glyph-name="Edieresis" unicode="&#xcb;" horiz-adv-x="766" 
d="M720 720v-132h-529v-162h426v-132h-426v-162h529v-132h-662v720h662zM547 911v-132h-132v132h132zM375 911v-132h-131v132h131z" />
    <glyph glyph-name="Igrave" unicode="&#xcc;" horiz-adv-x="220" 
d="M57 0v720h132v-720h-132zM169 962l46 -183h-133l-46 183h133z" />
    <glyph glyph-name="Iacute" unicode="&#xcd;" horiz-adv-x="220" 
d="M57 0v720h132v-720h-132zM36 779l46 183h133l-46 -183h-133z" />
    <glyph glyph-name="Icircumflex" unicode="&#xce;" horiz-adv-x="220" 
d="M57 0v720h132v-720h-132zM92 778h-104l98 163h87l98 -163h-106l-37 59c-4 -6 -10 -15.833 -18 -29.5s-14 -23.5 -18 -29.5z" />
    <glyph glyph-name="Idieresis" unicode="&#xcf;" horiz-adv-x="220" 
d="M57 0v720h132v-720h-132zM274 911v-132h-132v132h132zM102 911v-132h-131v132h131z" />
    <glyph glyph-name="Ntilde" unicode="&#xd1;" horiz-adv-x="832" 
d="M643 192v528h133v-720h-144l-444 528v-528h-132v720h144zM517 874c31.333 0 60.334 9 87.001 27v-96c-34.667 -14.667 -64.334 -22 -89.001 -22c-24 0 -56 10.833 -96 32.5s-71.333 32.5 -94 32.5h-12c-29.333 0 -53.666 -12.667 -72.999 -38v111c30 12 58.333 18 85 18
c26 0 59.167 -10.167 99.5 -30.5s71.166 -31.833 92.499 -34.5z" />
    <glyph glyph-name="Ograve" unicode="&#xd2;" 
d="M193 720h442c38 0 70.667 -13.5 98 -40.5s41 -59.833 41 -98.5v-442c0 -38.667 -13.667 -71.5 -41 -98.5s-60 -40.5 -98 -40.5h-442c-38.667 0 -71.5 13.5 -98.5 40.5s-40.5 59.833 -40.5 98.5v442c0 38.667 13.5 71.5 40.5 98.5s59.833 40.5 98.5 40.5zM193 132h442
c4 0 6 2.33301 6 7v442c0 4.66699 -2 7 -6 7h-442c-4.66699 0 -7 -2.33301 -7 -7v-442c0 -4.66699 2.33301 -7 7 -7zM473 962l46 -183h-133l-46 183h133z" />
    <glyph glyph-name="Oacute" unicode="&#xd3;" 
d="M193 720h442c38 0 70.667 -13.5 98 -40.5s41 -59.833 41 -98.5v-442c0 -38.667 -13.667 -71.5 -41 -98.5s-60 -40.5 -98 -40.5h-442c-38.667 0 -71.5 13.5 -98.5 40.5s-40.5 59.833 -40.5 98.5v442c0 38.667 13.5 71.5 40.5 98.5s59.833 40.5 98.5 40.5zM193 132h442
c4 0 6 2.33301 6 7v442c0 4.66699 -2 7 -6 7h-442c-4.66699 0 -7 -2.33301 -7 -7v-442c0 -4.66699 2.33301 -7 7 -7zM340 779l46 183h133l-46 -183h-133z" />
    <glyph glyph-name="Ocircumflex" unicode="&#xd4;" 
d="M193 720h442c38 0 70.667 -13.5 98 -40.5s41 -59.833 41 -98.5v-442c0 -38.667 -13.667 -71.5 -41 -98.5s-60 -40.5 -98 -40.5h-442c-38.667 0 -71.5 13.5 -98.5 40.5s-40.5 59.833 -40.5 98.5v442c0 38.667 13.5 71.5 40.5 98.5s59.833 40.5 98.5 40.5zM193 132h442
c4 0 6 2.33301 6 7v442c0 4.66699 -2 7 -6 7h-442c-4.66699 0 -7 -2.33301 -7 -7v-442c0 -4.66699 2.33301 -7 7 -7zM396 778h-104l98 163h87l98 -163h-106l-37 59c-4 -6 -10 -15.833 -18 -29.5s-14 -23.5 -18 -29.5z" />
    <glyph glyph-name="Otilde" unicode="&#xd5;" 
d="M193 720h442c38 0 70.667 -13.5 98 -40.5s41 -59.833 41 -98.5v-442c0 -38.667 -13.667 -71.5 -41 -98.5s-60 -40.5 -98 -40.5h-442c-38.667 0 -71.5 13.5 -98.5 40.5s-40.5 59.833 -40.5 98.5v442c0 38.667 13.5 71.5 40.5 98.5s59.833 40.5 98.5 40.5zM193 132h442
c4 0 6 2.33301 6 7v442c0 4.66699 -2 7 -6 7h-442c-4.66699 0 -7 -2.33301 -7 -7v-442c0 -4.66699 2.33301 -7 7 -7zM515 874c31.333 0 60.334 9 87.001 27v-96c-34.667 -14.667 -64.334 -22 -89.001 -22c-24 0 -56 10.833 -96 32.5s-71.333 32.5 -94 32.5h-12
c-29.333 0 -53.666 -12.667 -72.999 -38v111c30 12 58.333 18 85 18c26 0 59.167 -10.167 99.5 -30.5s71.166 -31.833 92.499 -34.5z" />
    <glyph glyph-name="Odieresis" unicode="&#xd6;" 
d="M193 720h442c38 0 70.667 -13.5 98 -40.5s41 -59.833 41 -98.5v-442c0 -38.667 -13.667 -71.5 -41 -98.5s-60 -40.5 -98 -40.5h-442c-38.667 0 -71.5 13.5 -98.5 40.5s-40.5 59.833 -40.5 98.5v442c0 38.667 13.5 71.5 40.5 98.5s59.833 40.5 98.5 40.5zM193 132h442
c4 0 6 2.33301 6 7v442c0 4.66699 -2 7 -6 7h-442c-4.66699 0 -7 -2.33301 -7 -7v-442c0 -4.66699 2.33301 -7 7 -7zM578 911v-132h-132v132h132zM406 911v-132h-131v132h131z" />
    <glyph glyph-name="multiply" unicode="&#xd7;" horiz-adv-x="546" 
d="M500 513v-33l-139 -180l139 -181v-33h-144l-80 109l-80 -109h-143v33l139 181l-139 180v33h143l80 -109l80 109h144z" />
    <glyph glyph-name="Ugrave" unicode="&#xd9;" 
d="M641 139v581h133v-581c0 -38.667 -13.667 -71.5 -41 -98.5s-60 -40.5 -98 -40.5h-442c-38.667 0 -71.5 13.5 -98.5 40.5s-40.5 59.833 -40.5 98.5v581h132v-581c0 -4.66699 2.33301 -7 7 -7h442c4 0 6 2.33301 6 7zM473 962l46 -183h-133l-46 183h133z" />
    <glyph glyph-name="Uacute" unicode="&#xda;" 
d="M641 139v581h133v-581c0 -38.667 -13.667 -71.5 -41 -98.5s-60 -40.5 -98 -40.5h-442c-38.667 0 -71.5 13.5 -98.5 40.5s-40.5 59.833 -40.5 98.5v581h132v-581c0 -4.66699 2.33301 -7 7 -7h442c4 0 6 2.33301 6 7zM340 779l46 183h133l-46 -183h-133z" />
    <glyph glyph-name="Ucircumflex" unicode="&#xdb;" 
d="M641 139v581h133v-581c0 -38.667 -13.667 -71.5 -41 -98.5s-60 -40.5 -98 -40.5h-442c-38.667 0 -71.5 13.5 -98.5 40.5s-40.5 59.833 -40.5 98.5v581h132v-581c0 -4.66699 2.33301 -7 7 -7h442c4 0 6 2.33301 6 7zM396 778h-104l98 163h87l98 -163h-106l-37 59
c-4 -6 -10 -15.833 -18 -29.5s-14 -23.5 -18 -29.5z" />
    <glyph glyph-name="Udieresis" unicode="&#xdc;" 
d="M641 139v581h133v-581c0 -38.667 -13.667 -71.5 -41 -98.5s-60 -40.5 -98 -40.5h-442c-38.667 0 -71.5 13.5 -98.5 40.5s-40.5 59.833 -40.5 98.5v581h132v-581c0 -4.66699 2.33301 -7 7 -7h442c4 0 6 2.33301 6 7zM578 911v-132h-132v132h132zM406 911v-132h-131v132
h131z" />
    <glyph glyph-name="Yacute" unicode="&#xdd;" horiz-adv-x="806" 
d="M657 720h158l-333 -451v-269h-132v269l-333 451h157l242 -306zM329 779l46 183h133l-46 -183h-133z" />
    <glyph glyph-name="germandbls" unicode="&#xdf;" horiz-adv-x="833" 
d="M770 599l0.000976562 -160.999c0 -28 -6.66699 -52 -20 -72c13.333 -20 20 -44 20 -72v-156c0 -38 -13.5 -70.5 -40.5 -97.5s-59.5 -40.5 -97.5 -40.5h-359v131h359c4.66699 0 7 2.33301 7 7v156c0 4 -2.33301 6 -7 6h-359v121h359c4.66699 0 7 2.33301 7 7v146
c0 4.66699 -2.33301 7 -7 7h-437c-4.66699 0 -7 -2.33301 -7 -7v-574h-131v575c0 38 13.5 70.5 40.5 97.5s59.5 40.5 97.5 40.5h437c34 0 64.167 -10.833 90.5 -32.5s42.166 -48.834 47.499 -81.501z" />
    <glyph glyph-name="agrave" unicode="&#xe0;" horiz-adv-x="725" 
d="M503 580c38 0 70.5 -13.5 97.5 -40.5s40.5 -59.5 40.5 -97.5v-442h-451c-38 0 -70.5 13.5 -97.5 40.5s-40.5 59.5 -40.5 97.5v218h458v86c0 4.66699 -2.33301 7 -7 7h-451v131h451zM510 131v93h-327v-86c0 -4.66699 2.33301 -7 7 -7h320zM421 860l46 -183h-133l-46 183
h133z" />
    <glyph glyph-name="aacute" unicode="&#xe1;" horiz-adv-x="725" 
d="M503 580c38 0 70.5 -13.5 97.5 -40.5s40.5 -59.5 40.5 -97.5v-442h-451c-38 0 -70.5 13.5 -97.5 40.5s-40.5 59.5 -40.5 97.5v218h458v86c0 4.66699 -2.33301 7 -7 7h-451v131h451zM510 131v93h-327v-86c0 -4.66699 2.33301 -7 7 -7h320zM288 677l46 183h133l-46 -183
h-133z" />
    <glyph glyph-name="acircumflex" unicode="&#xe2;" horiz-adv-x="725" 
d="M503 580c38 0 70.5 -13.5 97.5 -40.5s40.5 -59.5 40.5 -97.5v-442h-451c-38 0 -70.5 13.5 -97.5 40.5s-40.5 59.5 -40.5 97.5v218h458v86c0 4.66699 -2.33301 7 -7 7h-451v131h451zM510 131v93h-327v-86c0 -4.66699 2.33301 -7 7 -7h320zM344 677h-104l98 163h87l98 -163
h-106l-37 59c-4 -6 -10 -15.833 -18 -29.5s-14 -23.5 -18 -29.5z" />
    <glyph glyph-name="atilde" unicode="&#xe3;" horiz-adv-x="725" 
d="M503 580c38 0 70.5 -13.5 97.5 -40.5s40.5 -59.5 40.5 -97.5v-442h-451c-38 0 -70.5 13.5 -97.5 40.5s-40.5 59.5 -40.5 97.5v218h458v86c0 4.66699 -2.33301 7 -7 7h-451v131h451zM510 131v93h-327v-86c0 -4.66699 2.33301 -7 7 -7h320zM463 771
c31.333 0 60.334 9 87.001 27v-96c-34.667 -14.667 -64.334 -22 -89.001 -22c-24 0 -56 10.833 -96 32.5s-71.333 32.5 -94 32.5h-12c-29.333 0 -53.666 -12.667 -72.999 -38v111c30 12 58.333 18 85 18c26 0 59.167 -10.167 99.5 -30.5s71.166 -31.833 92.499 -34.5z" />
    <glyph glyph-name="adieresis" unicode="&#xe4;" horiz-adv-x="725" 
d="M503 580c38 0 70.5 -13.5 97.5 -40.5s40.5 -59.5 40.5 -97.5v-442h-451c-38 0 -70.5 13.5 -97.5 40.5s-40.5 59.5 -40.5 97.5v218h458v86c0 4.66699 -2.33301 7 -7 7h-451v131h451zM510 131v93h-327v-86c0 -4.66699 2.33301 -7 7 -7h320zM526 809v-132h-132v132h132z
M354 809v-132h-131v132h131z" />
    <glyph glyph-name="aring" unicode="&#xe5;" horiz-adv-x="725" 
d="M503 580c38 0 70.5 -13.5 97.5 -40.5s40.5 -59.5 40.5 -97.5v-442h-451c-38 0 -70.5 13.5 -97.5 40.5s-40.5 59.5 -40.5 97.5v218h458v86c0 4.66699 -2.33301 7 -7 7h-451v131h451zM510 131v93h-327v-86c0 -4.66699 2.33301 -7 7 -7h320zM332 858h54
c18 0 33.333 -6.5 46 -19.5s19 -28.167 19 -45.5v-51c0 -17.333 -6.33301 -32.5 -19 -45.5s-28 -19.5 -46 -19.5h-54c-18 0 -33.333 6.5 -46 19.5s-19 28.167 -19 45.5v51c0 17.333 6.33301 32.5 19 45.5s28 19.5 46 19.5zM333 791v-47h52v47h-52z" />
    <glyph glyph-name="ae" unicode="&#xe6;" horiz-adv-x="1178" 
d="M963 580c38 0 70.333 -13.5 97 -40.5s40 -59.5 40 -97.5v-218h-458v-88c0 -3.33301 2.33301 -5 7 -5h451v-131h-910c-38 0 -70.333 13.5 -97 40.5s-40 59.5 -40 97.5v218h458v86c0 4.66699 -2.33301 7 -7 7h-451v131h910zM511 131v93h-327v-86c0 -4.66699 2 -7 6 -7h321z
M642 356h327v86c0 4.66699 -2 7 -6 7h-314c-4.66699 0 -7 -2.33301 -7 -7v-86z" />
    <glyph glyph-name="ccedilla" unicode="&#xe7;" horiz-adv-x="693" 
d="M189 131h451v-131h-207l-38 -154h-133l38 154h-111c-38 0 -70.5 13.5 -97.5 40.5s-40.5 59.5 -40.5 97.5v304c0 38 13.5 70.5 40.5 97.5s59.5 40.5 97.5 40.5h449v-131h-449c-4.66699 0 -7 -2.33301 -7 -7v-304c0 -4.66699 2.33301 -7 7 -7z" />
    <glyph glyph-name="egrave" unicode="&#xe8;" horiz-adv-x="638" 
d="M502 580c38 0 70.5 -13.5 97.5 -40.5s40.5 -59.5 40.5 -97.5v-218h-458v-86c0 -4.66699 2.33301 -7 7 -7h451v-131h-451c-38 0 -70.5 13.5 -97.5 40.5s-40.5 59.5 -40.5 97.5v304c0 38 13.5 70.5 40.5 97.5s59.5 40.5 97.5 40.5h313zM182 356h327v86
c0 4.66699 -2.33301 7 -7 7h-313c-4.66699 0 -7 -2.33301 -7 -7v-86zM378 860l46 -183h-133l-46 183h133z" />
    <glyph glyph-name="eacute" unicode="&#xe9;" horiz-adv-x="638" 
d="M502 580c38 0 70.5 -13.5 97.5 -40.5s40.5 -59.5 40.5 -97.5v-218h-458v-86c0 -4.66699 2.33301 -7 7 -7h451v-131h-451c-38 0 -70.5 13.5 -97.5 40.5s-40.5 59.5 -40.5 97.5v304c0 38 13.5 70.5 40.5 97.5s59.5 40.5 97.5 40.5h313zM182 356h327v86
c0 4.66699 -2.33301 7 -7 7h-313c-4.66699 0 -7 -2.33301 -7 -7v-86zM245 678l46 183h133l-46 -183h-133z" />
    <glyph glyph-name="ecircumflex" unicode="&#xea;" horiz-adv-x="638" 
d="M502 580c38 0 70.5 -13.5 97.5 -40.5s40.5 -59.5 40.5 -97.5v-218h-458v-86c0 -4.66699 2.33301 -7 7 -7h451v-131h-451c-38 0 -70.5 13.5 -97.5 40.5s-40.5 59.5 -40.5 97.5v304c0 38 13.5 70.5 40.5 97.5s59.5 40.5 97.5 40.5h313zM182 356h327v86
c0 4.66699 -2.33301 7 -7 7h-313c-4.66699 0 -7 -2.33301 -7 -7v-86zM301 677h-104l98 163h87l98 -163h-106l-37 59c-4 -6 -10 -15.833 -18 -29.5s-14 -23.5 -18 -29.5z" />
    <glyph glyph-name="edieresis" unicode="&#xeb;" horiz-adv-x="638" 
d="M502 580c38 0 70.5 -13.5 97.5 -40.5s40.5 -59.5 40.5 -97.5v-218h-458v-86c0 -4.66699 2.33301 -7 7 -7h451v-131h-451c-38 0 -70.5 13.5 -97.5 40.5s-40.5 59.5 -40.5 97.5v304c0 38 13.5 70.5 40.5 97.5s59.5 40.5 97.5 40.5h313zM182 356h327v86
c0 4.66699 -2.33301 7 -7 7h-313c-4.66699 0 -7 -2.33301 -7 -7v-86zM483 809v-132h-132v132h132zM311 809v-132h-131v132h131z" />
    <glyph glyph-name="igrave" unicode="&#xec;" horiz-adv-x="214" 
d="M56 0v580h131v-580h-131zM149 861l46 -183h-133l-46 183h133z" />
    <glyph glyph-name="iacute" unicode="&#xed;" horiz-adv-x="214" 
d="M51 0v580h131v-580h-131zM49 677l46 183h133l-46 -183h-133z" />
    <glyph glyph-name="icircumflex" unicode="&#xee;" horiz-adv-x="214" 
d="M51 0v580h131v-580h-131zM89 677h-104l98 163h87l98 -163h-106l-37 59c-4 -6 -10 -15.833 -18 -29.5s-14 -23.5 -18 -29.5z" />
    <glyph glyph-name="idieresis" unicode="&#xef;" horiz-adv-x="214" 
d="M55 0v580h131v-580h-131zM271 811v-132h-132v132h132zM99 811v-132h-131v132h131z" />
    <glyph glyph-name="ntilde" unicode="&#xf1;" horiz-adv-x="708" 
d="M505 580c38 0 70.5 -13.5 97.5 -40.5s40.5 -59.5 40.5 -97.5v-442h-131v442c0 4.66699 -2.33301 7 -7 7h-313c-4.66699 0 -7 -2.33301 -7 -7v-442h-131v580h451zM455 770c31.333 0 60.334 9 87.001 27v-96c-34.667 -14.667 -64.334 -22 -89.001 -22
c-24 0 -56 10.833 -96 32.5s-71.333 32.5 -94 32.5h-12c-29.333 0 -53.666 -12.667 -72.999 -38v111c30 12 58.333 18 85 18c26 0 59.167 -10.167 99.5 -30.5s71.166 -31.833 92.499 -34.5z" />
    <glyph glyph-name="ograve" unicode="&#xf2;" horiz-adv-x="692" 
d="M189 580h313c38 0 70.5 -13.5 97.5 -40.5s40.5 -59.5 40.5 -97.5v-304c0 -38 -13.5 -70.5 -40.5 -97.5s-59.5 -40.5 -97.5 -40.5h-313c-38 0 -70.5 13.5 -97.5 40.5s-40.5 59.5 -40.5 97.5v304c0 38 13.5 70.5 40.5 97.5s59.5 40.5 97.5 40.5zM502 449h-313
c-4.66699 0 -7 -2.33301 -7 -7v-304c0 -4.66699 2.33301 -7 7 -7h313c4.66699 0 7 2.33301 7 7v304c0 4.66699 -2.33301 7 -7 7zM405 861l46 -183h-133l-46 183h133z" />
    <glyph glyph-name="oacute" unicode="&#xf3;" horiz-adv-x="692" 
d="M189 580h313c38 0 70.5 -13.5 97.5 -40.5s40.5 -59.5 40.5 -97.5v-304c0 -38 -13.5 -70.5 -40.5 -97.5s-59.5 -40.5 -97.5 -40.5h-313c-38 0 -70.5 13.5 -97.5 40.5s-40.5 59.5 -40.5 97.5v304c0 38 13.5 70.5 40.5 97.5s59.5 40.5 97.5 40.5zM502 449h-313
c-4.66699 0 -7 -2.33301 -7 -7v-304c0 -4.66699 2.33301 -7 7 -7h313c4.66699 0 7 2.33301 7 7v304c0 4.66699 -2.33301 7 -7 7zM272 678l46 183h133l-46 -183h-133z" />
    <glyph glyph-name="ocircumflex" unicode="&#xf4;" horiz-adv-x="692" 
d="M189 580h313c38 0 70.5 -13.5 97.5 -40.5s40.5 -59.5 40.5 -97.5v-304c0 -38 -13.5 -70.5 -40.5 -97.5s-59.5 -40.5 -97.5 -40.5h-313c-38 0 -70.5 13.5 -97.5 40.5s-40.5 59.5 -40.5 97.5v304c0 38 13.5 70.5 40.5 97.5s59.5 40.5 97.5 40.5zM502 449h-313
c-4.66699 0 -7 -2.33301 -7 -7v-304c0 -4.66699 2.33301 -7 7 -7h313c4.66699 0 7 2.33301 7 7v304c0 4.66699 -2.33301 7 -7 7zM328 677h-104l98 163h87l98 -163h-106l-37 59c-4 -6 -10 -15.833 -18 -29.5s-14 -23.5 -18 -29.5z" />
    <glyph glyph-name="otilde" unicode="&#xf5;" horiz-adv-x="692" 
d="M189 580h313c38 0 70.5 -13.5 97.5 -40.5s40.5 -59.5 40.5 -97.5v-304c0 -38 -13.5 -70.5 -40.5 -97.5s-59.5 -40.5 -97.5 -40.5h-313c-38 0 -70.5 13.5 -97.5 40.5s-40.5 59.5 -40.5 97.5v304c0 38 13.5 70.5 40.5 97.5s59.5 40.5 97.5 40.5zM502 449h-313
c-4.66699 0 -7 -2.33301 -7 -7v-304c0 -4.66699 2.33301 -7 7 -7h313c4.66699 0 7 2.33301 7 7v304c0 4.66699 -2.33301 7 -7 7zM447 770c31.333 0 60.334 9 87.001 27v-96c-34.667 -14.667 -64.334 -22 -89.001 -22c-24 0 -56 10.833 -96 32.5s-71.333 32.5 -94 32.5h-12
c-29.333 0 -53.666 -12.667 -72.999 -38v111c30 12 58.333 18 85 18c26 0 59.167 -10.167 99.5 -30.5s71.166 -31.833 92.499 -34.5z" />
    <glyph glyph-name="odieresis" unicode="&#xf6;" horiz-adv-x="692" 
d="M189 580h313c38 0 70.5 -13.5 97.5 -40.5s40.5 -59.5 40.5 -97.5v-304c0 -38 -13.5 -70.5 -40.5 -97.5s-59.5 -40.5 -97.5 -40.5h-313c-38 0 -70.5 13.5 -97.5 40.5s-40.5 59.5 -40.5 97.5v304c0 38 13.5 70.5 40.5 97.5s59.5 40.5 97.5 40.5zM502 449h-313
c-4.66699 0 -7 -2.33301 -7 -7v-304c0 -4.66699 2.33301 -7 7 -7h313c4.66699 0 7 2.33301 7 7v304c0 4.66699 -2.33301 7 -7 7zM510 811v-132h-132v132h132zM338 811v-132h-131v132h131z" />
    <glyph glyph-name="divide" unicode="&#xf7;" horiz-adv-x="502" 
d="M503 361v-131h-485v131h485zM201 132h131v-131h-131v131zM332 589v-132h-131v132h131z" />
    <glyph glyph-name="ugrave" unicode="&#xf9;" horiz-adv-x="695" 
d="M511 580h131.001v-442c0 -38 -13.5 -70.5 -40.5 -97.5s-59.5 -40.5 -97.5 -40.5h-313c-38.667 0 -71.334 13.5 -98.001 40.5s-40 59.5 -40 97.5v442h131v-442c0 -4.66699 2.33301 -7 7 -7h313c4.66699 0 7 2.33301 7 7v442zM406.001 861l46 -183h-133l-46 183h133z" />
    <glyph glyph-name="uacute" unicode="&#xfa;" horiz-adv-x="695" 
d="M511 580h131.001v-442c0 -38 -13.5 -70.5 -40.5 -97.5s-59.5 -40.5 -97.5 -40.5h-313c-38.667 0 -71.334 13.5 -98.001 40.5s-40 59.5 -40 97.5v442h131v-442c0 -4.66699 2.33301 -7 7 -7h313c4.66699 0 7 2.33301 7 7v442zM273.001 678l46 183h133l-46 -183h-133z" />
    <glyph glyph-name="ucircumflex" unicode="&#xfb;" horiz-adv-x="695" 
d="M511 580h131.001v-442c0 -38 -13.5 -70.5 -40.5 -97.5s-59.5 -40.5 -97.5 -40.5h-313c-38.667 0 -71.334 13.5 -98.001 40.5s-40 59.5 -40 97.5v442h131v-442c0 -4.66699 2.33301 -7 7 -7h313c4.66699 0 7 2.33301 7 7v442zM329.001 678h-104l98 163h87l98 -163h-106
l-37 59c-4 -6 -10 -15.833 -18 -29.5s-14 -23.5 -18 -29.5z" />
    <glyph glyph-name="udieresis" unicode="&#xfc;" horiz-adv-x="695" 
d="M511 580h131.001v-442c0 -38 -13.5 -70.5 -40.5 -97.5s-59.5 -40.5 -97.5 -40.5h-313c-38.667 0 -71.334 13.5 -98.001 40.5s-40 59.5 -40 97.5v442h131v-442c0 -4.66699 2.33301 -7 7 -7h313c4.66699 0 7 2.33301 7 7v442zM511.001 809v-132h-132v132h132zM339.001 809
v-132h-131v132h131z" />
    <glyph glyph-name="yacute" unicode="&#xfd;" horiz-adv-x="688" 
d="M631 -92c0 -38 -13.333 -70.5 -40 -97.5s-59 -40.5 -97 -40.5h-355v132h355c4 0 6 2 6 6v92h-320c-38 0 -70.5 13.5 -97.5 40.5s-40.5 59.5 -40.5 97.5v440h131v-440c0 -4.66699 2.33301 -7 7 -7h314c4 0 6 2.33301 6 7v440h131v-670zM270 678l46 183h133l-46 -183h-133z
" />
    <glyph glyph-name="ydieresis" unicode="&#xff;" horiz-adv-x="688" 
d="M631 -92c0 -38 -13.333 -70.5 -40 -97.5s-59 -40.5 -97 -40.5h-355v132h355c4 0 6 2 6 6v92h-320c-38 0 -70.5 13.5 -97.5 40.5s-40.5 59.5 -40.5 97.5v440h131v-440c0 -4.66699 2.33301 -7 7 -7h314c4 0 6 2.33301 6 7v440h131v-670zM508 811v-132h-132v132h132z
M336 811v-132h-131v132h131z" />
    <glyph glyph-name="dotlessi" unicode="&#x131;" horiz-adv-x="214" 
d="M52 0v580h131v-580h-131z" />
    <glyph glyph-name="OE" unicode="&#x152;" horiz-adv-x="1374" 
d="M773 588v-162h426v-132h-426v-162h530v-132h-1111c-38 0 -70.667 13.5 -98 40.5s-41 59.833 -41 98.5v442c0 38.667 13.667 71.5 41 98.5s60 40.5 98 40.5h1111v-132h-530zM634 132c4.66699 0 7 2.33301 7 7v442c0 4.66699 -2.33301 7 -7 7h-442c-4 0 -6 -2.33301 -6 -7
v-442c0 -4.66699 2 -7 6 -7h442z" />
    <glyph glyph-name="oe" unicode="&#x153;" horiz-adv-x="1177" 
d="M1099 224h-458v-86c0 -4.66699 2.33301 -7 7 -7h451v-131h-909c-38.667 0 -71.334 13.5 -98.001 40.5s-40 59.5 -40 97.5v304c0 38 13.333 70.5 40 97.5s59.334 40.5 98.001 40.5h772c38 0 70.333 -13.5 97 -40.5s40 -59.5 40 -97.5v-218zM648 449
c-4.66699 0 -7 -2.33301 -7 -7v-86h327v86c0 4.66699 -2 7 -6 7h-314zM503 131c4.66699 0 7 2.33301 7 7v304c0 4.66699 -2.33301 7 -7 7h-313c-4.66699 0 -7 -2.33301 -7 -7v-304c0 -4.66699 2.33301 -7 7 -7h313z" />
    <glyph glyph-name="Scaron" unicode="&#x160;" horiz-adv-x="822" 
d="M771 581v-55h-133v55c0 4.66699 -2 7 -6 7h-442c-4.66699 0 -7 -2.33301 -7 -7v-148c0 -4.66699 2.33301 -7 7 -7h442c38 0 70.667 -13.5 98 -40.5s41 -59.833 41 -98.5v-148c0 -38.667 -13.667 -71.5 -41 -98.5s-60 -40.5 -98 -40.5h-442
c-38.667 0 -71.5 13.5 -98.5 40.5s-40.5 59.833 -40.5 98.5v55h132v-55c0 -4.66699 2.33301 -7 7 -7h442c4 0 6 2.33301 6 7v148c0 4.66699 -2 7 -6 7h-442c-38.667 0 -71.5 13.5 -98.5 40.5s-40.5 59.833 -40.5 98.5v148c0 38.667 13.5 71.5 40.5 98.5
s59.833 40.5 98.5 40.5h442c38 0 70.667 -13.5 98 -40.5s41 -59.833 41 -98.5zM289 941h103l37 -59l37 59h106l-98 -163h-87z" />
    <glyph glyph-name="scaron" unicode="&#x161;" horiz-adv-x="687" 
d="M637 442l-0.000976562 -25h-131v25c0 4.66699 -2.33301 7 -7 7h-313c-4.66699 0 -7 -2.33301 -7 -7v-80c0 -4 2.33301 -6 7 -6h313c38.667 0 71.334 -13.5 98.001 -40.5s40 -59.5 40 -97.5v-80c0 -38 -13.333 -70.5 -40 -97.5s-59.334 -40.5 -98.001 -40.5h-313
c-38 0 -70.5 13.5 -97.5 40.5s-40.5 59.5 -40.5 97.5v25h131v-25c0 -4.66699 2.33301 -7 7 -7h313c4.66699 0 7 2.33301 7 7v80c0 4 -2.33301 6 -7 6h-313c-38 0 -70.5 13.5 -97.5 40.5s-40.5 59.5 -40.5 97.5v80c0 38 13.5 70.5 40.5 97.5s59.5 40.5 97.5 40.5h313
c38.667 0 71.334 -13.5 98.001 -40.5s40 -59.5 40 -97.5zM220.999 840h103l37 -59l37 59h106l-98 -163h-87z" />
    <glyph glyph-name="Ydieresis" unicode="&#x178;" horiz-adv-x="806" 
d="M657 720h158l-333 -451v-269h-132v269l-333 451h157l242 -306zM567 911v-132h-132v132h132zM395 911v-132h-131v132h131z" />
    <glyph glyph-name="Zcaron" unicode="&#x17d;" horiz-adv-x="821" 
d="M51 588v132h720v-144l-528 -444h528v-132h-720v144l528 444h-528zM288 941h103l37 -59l37 59h106l-98 -163h-87z" />
    <glyph glyph-name="zcaron" unicode="&#x17e;" horiz-adv-x="698" 
d="M54 449v131h589v-143l-396 -306h396v-131h-589v143l396 306h-396zM227 843h103l37 -59l37 59h106l-98 -163h-87z" />
    <glyph glyph-name="circumflex" unicode="&#x2c6;" horiz-adv-x="300" 
d="M132 785h-104l98 163h87l98 -163h-106l-37 59c-4 -6 -10 -15.833 -18 -29.5s-14 -23.5 -18 -29.5z" />
    <glyph glyph-name="caron" unicode="&#x2c7;" horiz-adv-x="297" 
d="M27 948h103l37 -59l37 59h106l-98 -163h-87z" />
    <glyph glyph-name="breve" unicode="&#x2d8;" horiz-adv-x="287" 
d="M189 895h76v-21c0 -24.667 -8.33301 -45.5 -25 -62.5s-37.667 -25.5 -63 -25.5h-49c-25.333 0 -46.333 8.5 -63 25.5s-25 37.833 -25 62.5v21h77v-31h72v31z" />
    <glyph glyph-name="dotaccent" unicode="&#x2d9;" horiz-adv-x="233" 
d="M111 949h34c18 0 33.5 -6.5 46.5 -19.5s19.5 -28.167 19.5 -45.5v-32c0 -17.333 -6.5 -32.5 -19.5 -45.5s-28.5 -19.5 -46.5 -19.5h-34c-18 0 -33.5 6.5 -46.5 19.5s-19.5 28.167 -19.5 45.5v32c0 17.333 6.5 32.5 19.5 45.5s28.5 19.5 46.5 19.5z" />
    <glyph glyph-name="ring" unicode="&#x2da;" horiz-adv-x="233" 
d="M87 968h54c18 0 33.333 -6.5 46 -19.5s19 -28.167 19 -45.5v-51c0 -17.333 -6.33301 -32.5 -19 -45.5s-28 -19.5 -46 -19.5h-54c-18 0 -33.333 6.5 -46 19.5s-19 28.167 -19 45.5v51c0 17.333 6.33301 32.5 19 45.5s28 19.5 46 19.5zM88 901v-47h52v47h-52z" />
    <glyph glyph-name="tilde" unicode="&#x2dc;" horiz-adv-x="403" 
d="M300 881c30.667 0 59.667 9 87 27v-96c-34.667 -14.667 -64.334 -22 -89.001 -22c-24 0 -56 10.833 -96 32.5s-71.333 32.5 -94 32.5h-12c-29.333 0 -53.666 -12.667 -72.999 -38v111c30 12 58.333 18 85 18c25.333 0 58.333 -10.167 99 -30.5s71.667 -31.833 93 -34.5z
" />
    <glyph glyph-name="endash" unicode="&#x2013;" horiz-adv-x="708" 
d="M653 360v-131h-599v131h599z" />
    <glyph glyph-name="emdash" unicode="&#x2014;" horiz-adv-x="822" 
d="M762 360v-131h-708v131h708z" />
    <glyph glyph-name="quoteleft" unicode="&#x2018;" horiz-adv-x="217" 
d="M165 467h-131v117c0 34.667 12.5 65 37.5 91s56.167 42 93.5 48v-256z" />
    <glyph glyph-name="quoteright" unicode="&#x2019;" horiz-adv-x="216" 
d="M54 720h131v-117c0 -34 -12.5 -64 -37.5 -90s-56.167 -42.333 -93.5 -49v256z" />
    <glyph glyph-name="quotedblleft" unicode="&#x201c;" horiz-adv-x="402" 
d="M176 467h-131v117c0 34.667 12.5 65 37.5 91s56.167 42 93.5 48v-256zM349 467h-131v117c0 34.667 12.5 65 37.5 91s56.167 42 93.5 48v-256z" />
    <glyph glyph-name="quotedblright" unicode="&#x201d;" horiz-adv-x="401" 
d="M226 720h132v-117c0 -34 -12.5 -64 -37.5 -90s-56.5 -42.333 -94.5 -49v256zM54 720h131v-117c0 -34 -12.5 -64 -37.5 -90s-56.167 -42.333 -93.5 -49v256z" />
    <glyph glyph-name="bullet" unicode="&#x2022;" horiz-adv-x="371" 
d="M172 420h22c36.667 0 55 -18 55 -54v-19c0 -36 -18.333 -54 -55 -54h-22c-36 0 -54 18 -54 54v19c0 36 18 54 54 54z" />
    <glyph glyph-name="ellipsis" unicode="&#x2026;" horiz-adv-x="574" 
d="M366 131v-131h-132v131h132zM546 131v-131h-131v131h131zM185 131v-131h-131v131h131z" />
    <glyph glyph-name="Euro" unicode="&#x20ac;" horiz-adv-x="799" 
d="M268 131h478v-131h-478c-38 0 -70.5 13.5 -97.5 40.5s-40.5 59.5 -40.5 97.5v59h-95v131h95v57h-95v131h95v66c0 38 13.5 70.5 40.5 97.5s59.5 40.5 97.5 40.5h478v-131h-478c-4.66699 0 -7 -2.33301 -7 -7v-66h382v-131h-382v-57h382v-131h-382v-59
c0 -4.66699 2.33301 -7 7 -7z" />
    <glyph glyph-name="minus" unicode="&#x2212;" horiz-adv-x="517" 
d="M468 361v-131h-409v131h409z" />
    <glyph glyph-name="uniE000" unicode="&#xe000;" horiz-adv-x="0" 
 />
    <glyph glyph-name="seven.alt" unicode="&#xe002;" horiz-adv-x="771" 
d="M46 720h714v-33l-571 -687h-143v33l461 556h-461v131z" />
    <glyph glyph-name="nine.alt" unicode="&#xe003;" horiz-adv-x="784" 
d="M150 718h438c38 0 70.333 -13.5 97 -40.5s40 -59.5 40 -97.5v-580h-131v280c0 4.66699 -2 7 -6 7h-438c-38 0 -70.5 13.333 -97.5 40s-40.5 59 -40.5 97v156c0 38 13.5 70.5 40.5 97.5s59.5 40.5 97.5 40.5zM594 418v162c0 4.66699 -2 7 -6 7h-438
c-4 0 -6 -2.33301 -6 -7v-156c0 -4 2 -6 6 -6h444z" />
    <glyph glyph-name="two.alt" unicode="&#xe005;" horiz-adv-x="815" 
d="M761 464l-111.001 -57l-469 -251v-25h580v-131h-576c-32 -0 -60.667 10.333 -86 31s-41.666 46.334 -48.999 77.001l-1 128l580 308v45h-442c-4 0 -6 -2.33301 -6 -7v-66h-132v66c0 38 13.5 70.5 40.5 97.5s59.5 40.5 97.5 40.5h438c33.333 0 62.833 -10.833 88.5 -32.5
s41.5 -48.834 47.5 -81.501v-142z" />
    <glyph glyph-name="question.alt" unicode="&#xe006;" horiz-adv-x="667" 
d="M163 720h342c38 0 70.5 -13.5 97.5 -40.5s40.5 -59.5 40.5 -97.5v-175c0 -38 -13.5 -70.5 -40.5 -97.5s-59.5 -40.5 -97.5 -40.5h-181c-4 0 -6 -2 -6 -6v-102h-132v102c0 38 13.5 70.5 40.5 97.5s59.5 40.5 97.5 40.5h181c4.66699 0 7 2 7 6v175
c0 4.66699 -2.33301 7 -7 7h-347v-103h-131v119c5.33301 32.667 20.833 60 46.5 82s55.5 33 89.5 33zM318 0h-132v131h132v-131z" />
    <glyph glyph-name="four.alt" unicode="&#xe007;" horiz-adv-x="723" 
d="M593 312h101v-131h-101v-181h-131v181h-453v122l356 417h123v-67l-309 -341h283v142h131v-142z" />
    <glyph glyph-name="V.alt" unicode="&#xe00a;" horiz-adv-x="774" 
d="M54 720h131v-530l440 530h142v-40l-570 -680h-143v720z" />
    <glyph glyph-name="A.alt" unicode="&#xe00b;" horiz-adv-x="774" 
d="M0 0v33l570 687h143v-720h-132v183h-285l-153 -183h-143zM581 523l-175 -209h175v209z" />
    <glyph glyph-name="A.alt2" unicode="&#xe00c;" horiz-adv-x="774" 
d="M54 720h143l570 -687v-33h-142l-154 183h-286v-183h-131v720zM185 521v-207h176z" />
    <glyph glyph-name=".null" horiz-adv-x="0" 
 />
    <glyph glyph-name="nonmarkingreturn" horiz-adv-x="333" 
 />
    <glyph glyph-name="CR" horiz-adv-x="401" 
 />
    <glyph glyph-name="A.alt3" horiz-adv-x="827" 
d="M864 0h-152l-96 168h-394l-98 -168h-152l386 720h121zM419 553l-123 -253h245z" />
    <glyph glyph-name="C.alt" horiz-adv-x="822" 
d="M773 605v-121h-133v104h-449c-4.66699 0 -7 -2.33301 -7 -7v-442c0 -4.66699 2.33301 -7 7 -7h449v104h130v-121c-6 -32.667 -21.833 -60 -47.5 -82s-55.5 -33 -89.5 -33h-442c-38.667 0 -71.5 13.5 -98.5 40.5s-40.5 59.833 -40.5 98.5v442
c0 38.667 13.5 71.5 40.5 98.5s59.833 40.5 98.5 40.5h442c33.333 0 63 -10.833 89 -32.5s43 -49.167 51 -82.5z" />
    <glyph glyph-name="I.alt" horiz-adv-x="818" 
d="M769 720v-132h-294v-456h294v-132h-720v132h294v456h-294v132h720z" />
    <glyph glyph-name="J.alt" horiz-adv-x="645" 
d="M466 139v581h133v-581c0 -38.667 -13.667 -71.5 -41 -98.5s-60.333 -40.5 -99 -40.5h-456v132h456c4.66699 0 7 2.33301 7 7z" />
    <glyph glyph-name="K.alt" horiz-adv-x="829" 
d="M642 430v290h133v-271c0 -18 -7.16699 -35.5 -21.5 -52.5s-33.5 -30.167 -57.5 -39.5c24 -10 43 -23.333 57 -40s21 -34 21 -52v-265h-133v284c0 4.66699 -2 7 -6 7h-442c-4.66699 0 -7 -2.33301 -7 -7v-284h-132v720h132v-290c0 -4.66699 2.33301 -7 7 -7h442
c4.66699 0 7 2.33301 7 7z" />
    <glyph glyph-name="M.alt" horiz-adv-x="1155" 
d="M950 720c38 0 70.667 -13.5 98 -40.5s41 -59.833 41 -98.5v-581h-133v581c0 4.66699 -2 7 -6 7h-324v-588h-132v581c0 4.66699 -2.33301 7 -7 7h-301v-588h-132v720h896z" />
    <glyph glyph-name="N.alt" horiz-adv-x="827" 
d="M186 0h-132v720h581c38 0 70.667 -13.5 98 -40.5s41 -59.833 41 -98.5v-581h-133v581c0 4.66699 -2 7 -6 7h-449v-588z" />
    <glyph glyph-name="O.alt" horiz-adv-x="824" 
d="M191 720h442c38 0 70.667 -13.5 98 -40.5s41 -59.833 41 -98.5v-442c0 -38.667 -13.667 -71.5 -41 -98.5s-60 -40.5 -98 -40.5h-442c-38.667 0 -71.5 13.5 -98.5 40.5s-40.5 59.833 -40.5 98.5v442c0 38.667 13.5 71.5 40.5 98.5s59.833 40.5 98.5 40.5zM639 139v442
c0 4.66699 -2 7 -6 7h-442c-4.66699 0 -7 -2.33301 -7 -7v-442c0 -4.66699 2.33301 -7 7 -7h442c4 0 6 2.33301 6 7zM478 294h-132v132h132v-132z" />
    <glyph glyph-name="Q.alt" horiz-adv-x="868" 
d="M635 720c38 0 70.667 -13.5 98 -40.5s41 -59.833 41 -98.5v-442c0 -38.667 -13.667 -71.5 -41 -98.5s-60 -40.5 -98 -40.5h-155v-104h-133v104h-154c-38.667 0 -71.5 13.5 -98.5 40.5s-40.5 59.833 -40.5 98.5v442c0 38.667 13.5 71.5 40.5 98.5s59.833 40.5 98.5 40.5
h442zM641 139v442c0 4.66699 -2 7 -6 7h-442c-4.66699 0 -7 -2.33301 -7 -7v-442c0 -4.66699 2.33301 -7 7 -7h442c4 0 6 2.33301 6 7z" />
    <glyph glyph-name="R.alt" horiz-adv-x="826" 
d="M774 580v-194c0 -34 -17 -58.333 -51 -73c34 -14.667 51 -39 51 -73v-240h-133v240c0 4.66699 -2 7 -6 7h-442c-4.66699 0 -7 -2.33301 -7 -7v-240h-132v720l581 -1c38 0 70.667 -13.667 98 -41s41 -60 41 -98zM635 587h-442c-4.66699 0 -7 -2.33301 -7 -7v-194
c0 -4.66699 2.33301 -7 7 -7h442c4 0 6 2.33301 6 7v194c0 4.66699 -2 7 -6 7z" />
    <glyph glyph-name="S.alt" horiz-adv-x="812" 
d="M185 426h442c38 0 70.667 -13.5 98 -40.5s41 -59.833 41 -98.5v-148c0 -38.667 -13.667 -71.5 -41 -98.5s-60 -40.5 -98 -40.5h-581v132h581c4 0 6 2.33301 6 7v148c0 4.66699 -2 7 -6 7h-442c-38.667 0 -71.5 13.5 -98.5 40.5s-40.5 59.833 -40.5 98.5v148
c0 38.667 13.5 71.5 40.5 98.5s59.833 40.5 98.5 40.5h581v-132h-581c-4.66699 0 -7 -2.33301 -7 -7v-148c0 -4.66699 2.33301 -7 7 -7z" />
    <glyph glyph-name="V.alt2" horiz-adv-x="774" 
d="M587 192v528h133v-720h-144l-576 686v34h144z" />
    <glyph glyph-name="V.alt3" horiz-adv-x="827" 
d="M640 720h133v-720h-581c-38.667 0 -71.5 13.5 -98.5 40.5s-40.5 59.833 -40.5 98.5v581h132v-581c0 -4.66699 2.33301 -7 7 -7h448v588z" />
    <glyph glyph-name="W.alt" horiz-adv-x="1149" 
d="M1004 720h144v-34l-576 -686h-144v262l-219 -262h-144v720h132v-528l444 528h144v-35l-224 -265v-228z" />
    <glyph glyph-name="W.alt2" horiz-adv-x="1131" 
d="M141 720l443 -528v228l-224 265v35h144l444 -528v528h132v-720h-144l-219 261v-261h-144l-576 686v34h144z" />
    <glyph glyph-name="W.alt3" horiz-adv-x="1028" 
d="M510 372l-312 -372h-144v720h132v-529l324 386l323 -385v528h133v-720h-144z" />
    <glyph glyph-name="W.alt4" horiz-adv-x="1155" 
d="M192 0c-38.667 0 -71.5 13.5 -98.5 40.5s-40.5 59.833 -40.5 98.5v581h132v-581c0 -4.66699 2.33301 -7 7 -7h324v588h132v-581c0 -4.66699 2.33301 -7 7 -7h300v588h133v-720h-896z" />
    <glyph glyph-name="X.alt" horiz-adv-x="829" 
d="M642 720h133v-271c0 -20 -7.16699 -38.167 -21.5 -54.5s-32.833 -28.833 -55.5 -37.5c22.667 -9.33301 41 -22 55 -38s21 -34 21 -54v-265h-133v284c0 4.66699 -2 7 -6 7h-441c-4.66699 0 -7 -2.33301 -7 -7v-284h-132v265c0 41.333 25 72 75 92
c-50.667 19.333 -76 50 -76 92v271h132v-290c0 -4.66699 2.33301 -7 7 -7h442c4.66699 0 7 2.33301 7 7v290z" />
    <glyph glyph-name="Y.alt" horiz-adv-x="824" 
d="M638 720h133v-581c0 -38.667 -13.667 -71.5 -41 -98.5s-60 -40.5 -98 -40.5h-581v132h581c4 0 6 2.33301 6 7v148c0 4.66699 -2 7 -6 7h-442c-38.667 0 -71.5 13.5 -98.5 40.5s-40.5 59.833 -40.5 98.5v287h132v-287c0 -4.66699 2.33301 -7 7 -7h448v294z" />
    <glyph glyph-name="Z.alt" horiz-adv-x="818" 
d="M188 426h442c4 0 6 2.33301 6 7v148c0 4.66699 -2 7 -6 7h-581v132h581c38 0 70.667 -13.5 98 -40.5s41 -59.833 41 -98.5v-148c0 -38.667 -13.667 -71.5 -41 -98.5s-60 -40.5 -98 -40.5h-442c-4.66699 0 -7 -2.33301 -7 -7v-148c0 -4.66699 2.33301 -7 7 -7h581v-132
h-581c-38.667 0 -71.5 13.5 -98.5 40.5s-40.5 59.833 -40.5 98.5v148c0 38.667 13.5 71.5 40.5 98.5s59.833 40.5 98.5 40.5z" />
    <glyph glyph-name="a.alt" horiz-adv-x="693" 
d="M502 580c38 0 70.5 -13.5 97.5 -40.5s40.5 -59.5 40.5 -97.5v-442h-451c-38 0 -70.5 13.5 -97.5 40.5s-40.5 59.5 -40.5 97.5v304c0 38 13.5 70.5 40.5 97.5s59.5 40.5 97.5 40.5h313zM189 131h320v311c0 4.66699 -2.33301 7 -7 7h-313c-4.66699 0 -7 -2.33301 -7 -7
v-304c0 -4.66699 2.33301 -7 7 -7z" />
    <glyph glyph-name="a.sc" horiz-adv-x="725" 
d="M191 580h342c38 0 70.5 -13.5 97.5 -40.5s40.5 -59.5 40.5 -97.5v-442h-131v145h-356v-145h-131v442c0 38 13.5 70.5 40.5 97.5s59.5 40.5 97.5 40.5zM184 276h356v166c0 4.66699 -2.33301 7 -7 7h-342c-4.66699 0 -7 -2.33301 -7 -7v-166z" />
    <glyph glyph-name="b.sc" horiz-adv-x="700" 
d="M624 443v-84c0 -18 -3 -34.667 -9 -50c25.333 -26.667 38 -58 38 -94v-77c0 -38 -13.5 -70.5 -40.5 -97.5s-59.5 -40.5 -97.5 -40.5h-461v581h432c38 0 70.5 -13.5 97.5 -40.5s40.5 -59.5 40.5 -97.5zM486 450h-294c-4.66699 0 -7 -2.33301 -7 -7v-84
c0 -4 2.33301 -6 7 -6h294c4.66699 0 7 2 7 6v84c0 4.66699 -2.33301 7 -7 7zM522 138v77c0 4.66699 -2.33301 7 -7 7h-323c-4.66699 0 -7 -2.33301 -7 -7v-77c0 -4.66699 2.33301 -7 7 -7h323c4.66699 0 7 2.33301 7 7z" />
    <glyph glyph-name="c.sc" horiz-adv-x="693" 
d="M638 450h-449c-4.66699 0 -7 -2.33301 -7 -7v-305c0 -4.66699 2.33301 -7 7 -7h449v-131h-449c-38 0 -70.5 13.5 -97.5 40.5s-40.5 59.5 -40.5 97.5v305c0 38 13.5 70.5 40.5 97.5s59.5 40.5 97.5 40.5h449v-131z" />
    <glyph glyph-name="d.sc" horiz-adv-x="705" 
d="M54 581h461c38 0 70.5 -13.5 97.5 -40.5s40.5 -59.5 40.5 -97.5v-305c0 -38 -13.5 -70.5 -40.5 -97.5s-59.5 -40.5 -97.5 -40.5h-461v581zM522 138v305c0 4.66699 -2.33301 7 -7 7h-323c-4.66699 0 -7 -2.33301 -7 -7v-305c0 -4.66699 2.33301 -7 7 -7h323
c4.66699 0 7 2.33301 7 7z" />
    <glyph glyph-name="e.sc" horiz-adv-x="638" 
d="M586 581v-131h-401v-94h299v-132h-299v-93h401v-131h-532v581h532z" />
    <glyph glyph-name="f.sc" horiz-adv-x="591" 
d="M54 581h532v-131h-401v-94h299v-132h-299v-224h-131v581z" />
    <glyph glyph-name="g.sc" horiz-adv-x="690" 
d="M640 443v-31h-131v31c0 4.66699 -2.33301 7 -7 7h-313c-4.66699 0 -7 -2.33301 -7 -7v-305c0 -4.66699 2.33301 -7 7 -7h313c4.66699 0 7 2.33301 7 7v58h-162v131h293v-189c0 -38 -13.5 -70.5 -40.5 -97.5s-59.5 -40.5 -97.5 -40.5h-313c-38 0 -70.5 13.5 -97.5 40.5
s-40.5 59.5 -40.5 97.5v305c0 38 13.5 70.5 40.5 97.5s59.5 40.5 97.5 40.5h313c38 0 70.5 -13.5 97.5 -40.5s40.5 -59.5 40.5 -97.5z" />
    <glyph glyph-name="h.sc" horiz-adv-x="715" 
d="M528 580h132v-580h-132v224h-343v-224h-131v580h131v-224h343v224z" />
    <glyph glyph-name="i.sc" horiz-adv-x="214" 
d="M54 0v580h131v-580h-131z" />
    <glyph glyph-name="j.sc" horiz-adv-x="657" 
d="M473 138v442h131v-442c0 -38 -13.5 -70.5 -40.5 -97.5s-59.5 -40.5 -97.5 -40.5h-323c-38 0 -70.5 13.5 -97.5 40.5s-40.5 59.5 -40.5 97.5v71h131v-71c0 -4.66699 2.33301 -7 7 -7h323c4.66699 0 7 2.33301 7 7z" />
    <glyph glyph-name="k.alt" horiz-adv-x="669" 
d="M643 580v-218c0 -26.667 -6.66699 -50.667 -20 -72c13.333 -21.333 20 -45.333 20 -72v-218h-131v218c0 4 -2.33301 6 -7 6h-320v-224h-131v769h131v-413h320c4.66699 0 7 2 7 6v218h131z" />
    <glyph glyph-name="k.sc" horiz-adv-x="682" 
d="M495 580h141v-34l-232 -256l232 -256v-34h-141l-207 224h-103v-224h-131v580h131v-224h103z" />
    <glyph glyph-name="l.sc" horiz-adv-x="659" 
d="M54 0v580h131v-449h468v-131h-599z" />
    <glyph glyph-name="m.sc" horiz-adv-x="824" 
d="M409 279l210 302h145v-581h-132v393l-223 -319l-224 318v-392h-131v581h144z" />
    <glyph glyph-name="n.sc" horiz-adv-x="708" 
d="M522 192v388h131v-580h-144l-324 390v-390h-131v580h143z" />
    <glyph glyph-name="o.sc" horiz-adv-x="692" 
d="M189 580h313c38 0 70.5 -13.5 97.5 -40.5s40.5 -59.5 40.5 -97.5v-304c0 -38 -13.5 -70.5 -40.5 -97.5s-59.5 -40.5 -97.5 -40.5h-313c-38 0 -70.5 13.5 -97.5 40.5s-40.5 59.5 -40.5 97.5v304c0 38 13.5 70.5 40.5 97.5s59.5 40.5 97.5 40.5zM189 131h313
c4.66699 0 7 2.33301 7 7v304c0 4.66699 -2.33301 7 -7 7h-313c-4.66699 0 -7 -2.33301 -7 -7v-304c0 -4.66699 2.33301 -7 7 -7z" />
    <glyph glyph-name="p.sc" horiz-adv-x="660" 
d="M54 580l451 -0.00195312c38 0 70.5 -13.667 97.5 -41s40.5 -59.666 40.5 -96.999v-117c0 -37.333 -13.5 -69.666 -40.5 -96.999s-59.5 -41 -97.5 -41l-317 -1l-3 1v-187h-131v580zM512 324.998v117c0 4.66699 -2.33301 7 -7 7h-313c-4.66699 0 -7 -2.33301 -7 -7v-117
c0 -4 2.33301 -6 7 -6h313c4.66699 0 7 2 7 6z" />
    <glyph glyph-name="q.sc" horiz-adv-x="770" 
d="M641 131h85.999v-131h-537c-38 0 -70.5 13.5 -97.5 40.5s-40.5 59.5 -40.5 97.5v304c0 38 13.5 70.5 40.5 97.5s59.5 40.5 97.5 40.5h313c38.667 0 71.334 -13.5 98.001 -40.5s40 -59.5 40 -97.5v-311zM189.999 131h313c4.66699 0 7 2.33301 7 7v304
c0 4.66699 -2.33301 7 -7 7h-313c-4.66699 0 -7 -2.33301 -7 -7v-304c0 -4.66699 2.33301 -7 7 -7z" />
    <glyph glyph-name="r.sc" horiz-adv-x="700" 
d="M643 442v-117.002c0 -37.333 -13.5 -69.666 -40.5 -96.999s-59.5 -41 -97.5 -41h-23l171 -152v-35h-142l-205 187h-121v-187h-131v580h451c38 0 70.5 -13.667 97.5 -41s40.5 -59.666 40.5 -96.999zM192 318.998h313c4.66699 0 7 2 7 6v117c0 4.66699 -2.33301 7 -7 7
h-313c-4.66699 0 -7 -2.33301 -7 -7v-117c0 -4 2.33301 -6 7 -6z" />
    <glyph glyph-name="s.sc" horiz-adv-x="687" 
d="M638 442v-35h-131v35c0 4.66699 -2.33301 7 -7 7h-313c-4.66699 0 -7 -2.33301 -7 -7v-80c0 -4 2.33301 -6 7 -6h313c38 0 70.5 -13.5 97.5 -40.5s40.5 -59.5 40.5 -97.5v-80c0 -38 -13.5 -70.5 -40.5 -97.5s-59.5 -40.5 -97.5 -40.5h-313c-38 0 -70.5 13.5 -97.5 40.5
s-40.5 59.5 -40.5 97.5v35h131v-35c0 -4.66699 2.33301 -7 7 -7h313c4.66699 0 7 2.33301 7 7v80c0 4 -2.33301 6 -7 6h-313c-38 0 -70.5 13.5 -97.5 40.5s-40.5 59.5 -40.5 97.5v80c0 38 13.5 70.5 40.5 97.5s59.5 40.5 97.5 40.5h313c38 0 70.5 -13.5 97.5 -40.5
s40.5 -59.5 40.5 -97.5z" />
    <glyph glyph-name="t.sc" horiz-adv-x="644" 
d="M22 580h599v-131h-234v-449h-132v449h-233v131z" />
    <glyph glyph-name="u.sc" horiz-adv-x="695" 
d="M511 138l0.000976562 442h131v-442c0 -38 -13.5 -70.5 -40.5 -97.5s-59.5 -40.5 -97.5 -40.5h-313c-38.667 0 -71.334 13.5 -98.001 40.5s-40 59.5 -40 97.5v442h131v-442c0 -4.66699 2.33301 -7 7 -7h313c4.66699 0 7 2.33301 7 7z" />
    <glyph glyph-name="v.alt" horiz-adv-x="697" 
d="M511 580h131.001v-580h-451c-38.667 0 -71.334 13.5 -98.001 40.5s-40 59.5 -40 97.5v442h131v-442c0 -4.66699 2.33301 -7 7 -7h320v449z" />
    <glyph glyph-name="v.sc" horiz-adv-x="801" 
d="M406 159l234 421h150l-324 -580h-120l-325 580h151z" />
    <glyph glyph-name="w.alt" horiz-adv-x="978" 
d="M191 0c-38 0 -70.5 13.5 -97.5 40.5s-40.5 59.5 -40.5 97.5v442h130v-442c0 -4.66699 2.66699 -7 8 -7h218c4 0 6 2.33301 6 7v442h132v-442c0 -4.66699 2 -7 6 -7h219c4.66699 0 7 2.33301 7 7v442h131v-580h-719z" />
    <glyph glyph-name="w.sc" horiz-adv-x="1078" 
d="M895 580h140l-223 -580h-102l-175 379l-168 -379h-101l-232 580h139l145 -344l152 344h128l162 -344z" />
    <glyph glyph-name="x.alt" horiz-adv-x="698" 
d="M643 580v-218c0 -26.667 -6.66699 -50.667 -20 -72c13.333 -21.333 20 -45.333 20 -72v-218h-131v218c0 4 -2.33301 6 -7 6h-313c-4.66699 0 -7 -2 -7 -6v-218h-131v218c0 26.667 6.66699 50.667 20 72c-13.333 21.333 -20 45.333 -20 72v218h131v-218
c0 -4 2.33301 -6 7 -6h313c4.66699 0 7 2 7 6v218h131z" />
    <glyph glyph-name="x.sc" horiz-adv-x="692" 
d="M502 580h143v-33l-215 -251l215 -263v-33h-143l-157 193l-156 -193h-143v33l213 263l-213 251v33h143l156 -184z" />
    <glyph glyph-name="y.sc" horiz-adv-x="688" 
d="M537 580h156l-272 -380v-200h-131v200l-272 380h155l183 -236z" />
    <glyph glyph-name="z.alt" horiz-adv-x="692" 
d="M189 224c-4.66699 0 -7 -2 -7 -6v-80c0 -4.66699 2.33301 -7 7 -7h451v-131h-451c-38 0 -70.5 13.5 -97.5 40.5s-40.5 59.5 -40.5 97.5v80c0 38 13.5 70.5 40.5 97.5s59.5 40.5 97.5 40.5h313c4.66699 0 7 2 7 6v80c0 4.66699 -2.33301 7 -7 7h-451v131h451
c38 0 70.5 -13.5 97.5 -40.5s40.5 -59.5 40.5 -97.5v-80c0 -38 -13.5 -70.5 -40.5 -97.5s-59.5 -40.5 -97.5 -40.5h-313z" />
    <glyph glyph-name="z.sc" horiz-adv-x="698" 
d="M54 449v131h589v-143l-396 -306h396v-131h-589v143l396 306h-396z" />
    </font>
</defs>
</svg>
